solid OpenSCAD_Model
  facet normal -0.740927 0.671585 0
    outer loop
      vertex -16.2332 13.3223 0
      vertex -14.8492 14.8492 80
      vertex -14.8492 14.8492 0
    endloop
  endfacet
  facet normal -0.740927 0.671585 0
    outer loop
      vertex -14.8492 14.8492 80
      vertex -16.2332 13.3223 0
      vertex -16.2332 13.3223 80
    endloop
  endfacet
  facet normal -0.903975 -0.427585 0
    outer loop
      vertex -18.5203 -9.89933 0
      vertex -19.4015 -8.03635 80
      vertex -19.4015 -8.03635 0
    endloop
  endfacet
  facet normal -0.903975 -0.427585 0
    outer loop
      vertex -19.4015 -8.03635 80
      vertex -18.5203 -9.89933 0
      vertex -18.5203 -9.89933 80
    endloop
  endfacet
  facet normal 0.989176 0.146736 0
    outer loop
      vertex 20.8989 2.05836 80
      vertex 20.5965 4.0969 0
      vertex 20.5965 4.0969 80
    endloop
  endfacet
  facet normal 0.989176 0.146736 0
    outer loop
      vertex 20.5965 4.0969 0
      vertex 20.8989 2.05836 80
      vertex 20.8989 2.05836 0
    endloop
  endfacet
  facet normal 0.998796 0.0490576 0
    outer loop
      vertex 21 0 80
      vertex 20.8989 2.05836 0
      vertex 20.8989 2.05836 80
    endloop
  endfacet
  facet normal 0.998796 0.0490576 0
    outer loop
      vertex 20.8989 2.05836 0
      vertex 21 0 80
      vertex 21 0 0
    endloop
  endfacet
  facet normal 0.970025 0.243006 0
    outer loop
      vertex 20.5965 4.0969 80
      vertex 20.0957 6.09598 0
      vertex 20.0957 6.09598 80
    endloop
  endfacet
  facet normal 0.970025 0.243006 0
    outer loop
      vertex 20.0957 6.09598 0
      vertex 20.5965 4.0969 80
      vertex 20.5965 4.0969 0
    endloop
  endfacet
  facet normal 0.336857 -0.941556 0
    outer loop
      vertex 6.09598 -20.0957 0
      vertex 8.03635 -19.4015 80
      vertex 6.09598 -20.0957 80
    endloop
  endfacet
  facet normal 0.336857 -0.941556 0
    outer loop
      vertex 8.03635 -19.4015 80
      vertex 6.09598 -20.0957 0
      vertex 8.03635 -19.4015 0
    endloop
  endfacet
  facet normal -0.514067 0.85775 0
    outer loop
      vertex -9.89933 18.5203 0
      vertex -11.667 17.4609 80
      vertex -9.89933 18.5203 80
    endloop
  endfacet
  facet normal -0.514067 0.85775 0
    outer loop
      vertex -11.667 17.4609 80
      vertex -9.89933 18.5203 0
      vertex -11.667 17.4609 0
    endloop
  endfacet
  facet normal -0.427585 0.903975 0
    outer loop
      vertex -8.03635 19.4015 0
      vertex -9.89933 18.5203 80
      vertex -8.03635 19.4015 80
    endloop
  endfacet
  facet normal -0.427585 0.903975 0
    outer loop
      vertex -9.89933 18.5203 80
      vertex -8.03635 19.4015 0
      vertex -9.89933 18.5203 0
    endloop
  endfacet
  facet normal 0.427585 -0.903975 0
    outer loop
      vertex 8.03635 -19.4015 0
      vertex 9.89933 -18.5203 80
      vertex 8.03635 -19.4015 80
    endloop
  endfacet
  facet normal 0.427585 -0.903975 0
    outer loop
      vertex 9.89933 -18.5203 80
      vertex 8.03635 -19.4015 0
      vertex 9.89933 -18.5203 0
    endloop
  endfacet
  facet normal 0.146736 -0.989176 0
    outer loop
      vertex 2.05836 -20.8989 0
      vertex 4.0969 -20.5965 80
      vertex 2.05836 -20.8989 80
    endloop
  endfacet
  facet normal 0.146736 -0.989176 0
    outer loop
      vertex 4.0969 -20.5965 80
      vertex 2.05836 -20.8989 0
      vertex 4.0969 -20.5965 0
    endloop
  endfacet
  facet normal 0.740927 0.671585 0
    outer loop
      vertex 16.2332 13.3223 80
      vertex 14.8492 14.8492 0
      vertex 14.8492 14.8492 80
    endloop
  endfacet
  facet normal 0.740927 0.671585 0
    outer loop
      vertex 14.8492 14.8492 0
      vertex 16.2332 13.3223 80
      vertex 16.2332 13.3223 0
    endloop
  endfacet
  facet normal 0.85775 -0.514067 0
    outer loop
      vertex 17.4609 -11.667 80
      vertex 18.5203 -9.89933 0
      vertex 18.5203 -9.89933 80
    endloop
  endfacet
  facet normal 0.85775 -0.514067 0
    outer loop
      vertex 18.5203 -9.89933 0
      vertex 17.4609 -11.667 80
      vertex 17.4609 -11.667 0
    endloop
  endfacet
  facet normal 0.427585 0.903975 -0
    outer loop
      vertex 9.89933 18.5203 0
      vertex 8.03635 19.4015 80
      vertex 9.89933 18.5203 80
    endloop
  endfacet
  facet normal 0.427585 0.903975 0
    outer loop
      vertex 8.03635 19.4015 80
      vertex 9.89933 18.5203 0
      vertex 8.03635 19.4015 0
    endloop
  endfacet
  facet normal 0.146736 0.989176 -0
    outer loop
      vertex 4.0969 20.5965 0
      vertex 2.05836 20.8989 80
      vertex 4.0969 20.5965 80
    endloop
  endfacet
  facet normal 0.146736 0.989176 0
    outer loop
      vertex 2.05836 20.8989 80
      vertex 4.0969 20.5965 0
      vertex 2.05836 20.8989 0
    endloop
  endfacet
  facet normal -0.970025 -0.243006 0
    outer loop
      vertex -20.0957 -6.09598 0
      vertex -20.5965 -4.0969 80
      vertex -20.5965 -4.0969 0
    endloop
  endfacet
  facet normal -0.970025 -0.243006 0
    outer loop
      vertex -20.5965 -4.0969 80
      vertex -20.0957 -6.09598 0
      vertex -20.0957 -6.09598 80
    endloop
  endfacet
  facet normal 0.740927 -0.671585 0
    outer loop
      vertex 14.8492 -14.8492 80
      vertex 16.2332 -13.3223 0
      vertex 16.2332 -13.3223 80
    endloop
  endfacet
  facet normal 0.740927 -0.671585 0
    outer loop
      vertex 16.2332 -13.3223 0
      vertex 14.8492 -14.8492 80
      vertex 14.8492 -14.8492 0
    endloop
  endfacet
  facet normal 0.671585 0.740927 -0
    outer loop
      vertex 14.8492 14.8492 0
      vertex 13.3223 16.2332 80
      vertex 14.8492 14.8492 80
    endloop
  endfacet
  facet normal 0.671585 0.740927 0
    outer loop
      vertex 13.3223 16.2332 80
      vertex 14.8492 14.8492 0
      vertex 13.3223 16.2332 0
    endloop
  endfacet
  facet normal 0.803197 -0.595714 0
    outer loop
      vertex 16.2332 -13.3223 80
      vertex 17.4609 -11.667 0
      vertex 17.4609 -11.667 80
    endloop
  endfacet
  facet normal 0.803197 -0.595714 0
    outer loop
      vertex 17.4609 -11.667 0
      vertex 16.2332 -13.3223 80
      vertex 16.2332 -13.3223 0
    endloop
  endfacet
  facet normal -0.595714 -0.803197 0
    outer loop
      vertex -13.3223 -16.2332 0
      vertex -11.667 -17.4609 80
      vertex -13.3223 -16.2332 80
    endloop
  endfacet
  facet normal -0.595714 -0.803197 -0
    outer loop
      vertex -11.667 -17.4609 80
      vertex -13.3223 -16.2332 0
      vertex -11.667 -17.4609 0
    endloop
  endfacet
  facet normal -0.671585 0.740927 0
    outer loop
      vertex -13.3223 16.2332 0
      vertex -14.8492 14.8492 80
      vertex -13.3223 16.2332 80
    endloop
  endfacet
  facet normal -0.671585 0.740927 0
    outer loop
      vertex -14.8492 14.8492 80
      vertex -13.3223 16.2332 0
      vertex -14.8492 14.8492 0
    endloop
  endfacet
  facet normal 0 0 -1
    outer loop
      vertex 20 0 0
      vertex 21 0 0
      vertex 20.8989 -2.05836 0
    endloop
  endfacet
  facet normal 0 0 -1
    outer loop
      vertex 19.9037 -1.96034 0
      vertex 20.8989 -2.05836 0
      vertex 20.5965 -4.0969 0
    endloop
  endfacet
  facet normal 0 0 -1
    outer loop
      vertex 21 0 0
      vertex 20 0 0
      vertex 20.8989 2.05836 0
    endloop
  endfacet
  facet normal 0 0 -1
    outer loop
      vertex 19.6157 -3.90181 0
      vertex 20.5965 -4.0969 0
      vertex 20.0957 -6.09598 0
    endloop
  endfacet
  facet normal 0 0 -1
    outer loop
      vertex 19.9037 1.96034 0
      vertex 20.8989 2.05836 0
      vertex 20 0 0
    endloop
  endfacet
  facet normal -0 0 -1
    outer loop
      vertex 20.8989 2.05836 0
      vertex 19.9037 1.96034 0
      vertex 20.5965 4.0969 0
    endloop
  endfacet
  facet normal 0 0 -1
    outer loop
      vertex 20.8989 -2.05836 0
      vertex 19.9037 -1.96034 0
      vertex 20 0 0
    endloop
  endfacet
  facet normal 0 0 -1
    outer loop
      vertex 20.5965 -4.0969 0
      vertex 19.6157 -3.90181 0
      vertex 19.9037 -1.96034 0
    endloop
  endfacet
  facet normal 0 0 -1
    outer loop
      vertex 19.1388 -5.80569 0
      vertex 20.0957 -6.09598 0
      vertex 19.4015 -8.03635 0
    endloop
  endfacet
  facet normal 0 0 -1
    outer loop
      vertex 20.0957 -6.09598 0
      vertex 19.1388 -5.80569 0
      vertex 19.6157 -3.90181 0
    endloop
  endfacet
  facet normal 0 0 -1
    outer loop
      vertex 18.4776 -7.65367 0
      vertex 19.4015 -8.03635 0
      vertex 18.5203 -9.89933 0
    endloop
  endfacet
  facet normal 0 0 -1
    outer loop
      vertex 19.4015 -8.03635 0
      vertex 18.4776 -7.65367 0
      vertex 19.1388 -5.80569 0
    endloop
  endfacet
  facet normal 0 0 -1
    outer loop
      vertex 18.5203 -9.89933 0
      vertex 17.6384 -9.42793 0
      vertex 18.4776 -7.65367 0
    endloop
  endfacet
  facet normal 0 0 -1
    outer loop
      vertex 17.4609 -11.667 0
      vertex 17.6384 -9.42793 0
      vertex 18.5203 -9.89933 0
    endloop
  endfacet
  facet normal 0 0 -1
    outer loop
      vertex 17.4609 -11.667 0
      vertex 16.6294 -11.1114 0
      vertex 17.6384 -9.42793 0
    endloop
  endfacet
  facet normal 0 0 -1
    outer loop
      vertex 16.2332 -13.3223 0
      vertex 16.6294 -11.1114 0
      vertex 17.4609 -11.667 0
    endloop
  endfacet
  facet normal 0 0 -1
    outer loop
      vertex 16.2332 -13.3223 0
      vertex 15.4602 -12.6879 0
      vertex 16.6294 -11.1114 0
    endloop
  endfacet
  facet normal 0 0 -1
    outer loop
      vertex 14.8492 -14.8492 0
      vertex 15.4602 -12.6879 0
      vertex 16.2332 -13.3223 0
    endloop
  endfacet
  facet normal 0 0 -1
    outer loop
      vertex 14.8492 -14.8492 0
      vertex 14.1421 -14.1421 0
      vertex 15.4602 -12.6879 0
    endloop
  endfacet
  facet normal 0 0 -1
    outer loop
      vertex 13.3223 -16.2332 0
      vertex 14.1421 -14.1421 0
      vertex 14.8492 -14.8492 0
    endloop
  endfacet
  facet normal 0 0 -1
    outer loop
      vertex 13.3223 -16.2332 0
      vertex 12.6879 -15.4602 0
      vertex 14.1421 -14.1421 0
    endloop
  endfacet
  facet normal 0 0 -1
    outer loop
      vertex 11.667 -17.4609 0
      vertex 12.6879 -15.4602 0
      vertex 13.3223 -16.2332 0
    endloop
  endfacet
  facet normal 0 0 -1
    outer loop
      vertex 11.667 -17.4609 0
      vertex 11.1114 -16.6294 0
      vertex 12.6879 -15.4602 0
    endloop
  endfacet
  facet normal 0 0 -1
    outer loop
      vertex 9.89933 -18.5203 0
      vertex 11.1114 -16.6294 0
      vertex 11.667 -17.4609 0
    endloop
  endfacet
  facet normal 0 0 -1
    outer loop
      vertex 9.89933 -18.5203 0
      vertex 9.42793 -17.6384 0
      vertex 11.1114 -16.6294 0
    endloop
  endfacet
  facet normal 0 0 -1
    outer loop
      vertex 8.03635 -19.4015 0
      vertex 9.42793 -17.6384 0
      vertex 9.89933 -18.5203 0
    endloop
  endfacet
  facet normal 0 0 -1
    outer loop
      vertex 8.03635 -19.4015 0
      vertex 7.65367 -18.4776 0
      vertex 9.42793 -17.6384 0
    endloop
  endfacet
  facet normal 0 0 -1
    outer loop
      vertex 6.09598 -20.0957 0
      vertex 7.65367 -18.4776 0
      vertex 8.03635 -19.4015 0
    endloop
  endfacet
  facet normal 0 0 -1
    outer loop
      vertex 6.09598 -20.0957 0
      vertex 5.80569 -19.1388 0
      vertex 7.65367 -18.4776 0
    endloop
  endfacet
  facet normal 0 0 -1
    outer loop
      vertex 4.0969 -20.5965 0
      vertex 5.80569 -19.1388 0
      vertex 6.09598 -20.0957 0
    endloop
  endfacet
  facet normal 0 0 -1
    outer loop
      vertex 4.0969 -20.5965 0
      vertex 3.90181 -19.6157 0
      vertex 5.80569 -19.1388 0
    endloop
  endfacet
  facet normal 0 0 -1
    outer loop
      vertex 2.05836 -20.8989 0
      vertex 3.90181 -19.6157 0
      vertex 4.0969 -20.5965 0
    endloop
  endfacet
  facet normal 0 0 -1
    outer loop
      vertex 2.05836 -20.8989 0
      vertex 1.96034 -19.9037 0
      vertex 3.90181 -19.6157 0
    endloop
  endfacet
  facet normal 0 0 -1
    outer loop
      vertex 0 -21 0
      vertex 1.96034 -19.9037 0
      vertex 2.05836 -20.8989 0
    endloop
  endfacet
  facet normal 0 0 -1
    outer loop
      vertex 0 -21 0
      vertex 0 -20 0
      vertex 1.96034 -19.9037 0
    endloop
  endfacet
  facet normal 0 0 -1
    outer loop
      vertex 0 -21 0
      vertex -1.96034 -19.9037 0
      vertex 0 -20 0
    endloop
  endfacet
  facet normal 0 0 -1
    outer loop
      vertex -2.05836 -20.8989 0
      vertex -1.96034 -19.9037 0
      vertex 0 -21 0
    endloop
  endfacet
  facet normal 0 0 -1
    outer loop
      vertex -2.05836 -20.8989 0
      vertex -3.90181 -19.6157 0
      vertex -1.96034 -19.9037 0
    endloop
  endfacet
  facet normal 0 0 -1
    outer loop
      vertex -4.0969 -20.5965 0
      vertex -3.90181 -19.6157 0
      vertex -2.05836 -20.8989 0
    endloop
  endfacet
  facet normal 0 0 -1
    outer loop
      vertex -4.0969 -20.5965 0
      vertex -5.80569 -19.1388 0
      vertex -3.90181 -19.6157 0
    endloop
  endfacet
  facet normal 0 0 -1
    outer loop
      vertex -6.09598 -20.0957 0
      vertex -5.80569 -19.1388 0
      vertex -4.0969 -20.5965 0
    endloop
  endfacet
  facet normal 0 0 -1
    outer loop
      vertex -6.09598 -20.0957 0
      vertex -7.65367 -18.4776 0
      vertex -5.80569 -19.1388 0
    endloop
  endfacet
  facet normal 0 0 -1
    outer loop
      vertex -8.03635 -19.4015 0
      vertex -7.65367 -18.4776 0
      vertex -6.09598 -20.0957 0
    endloop
  endfacet
  facet normal 0 0 -1
    outer loop
      vertex -8.03635 -19.4015 0
      vertex -9.42793 -17.6384 0
      vertex -7.65367 -18.4776 0
    endloop
  endfacet
  facet normal 0 0 -1
    outer loop
      vertex -9.89933 -18.5203 0
      vertex -9.42793 -17.6384 0
      vertex -8.03635 -19.4015 0
    endloop
  endfacet
  facet normal 0 0 -1
    outer loop
      vertex -9.89933 -18.5203 0
      vertex -11.1114 -16.6294 0
      vertex -9.42793 -17.6384 0
    endloop
  endfacet
  facet normal 0 0 -1
    outer loop
      vertex -11.667 -17.4609 0
      vertex -11.1114 -16.6294 0
      vertex -9.89933 -18.5203 0
    endloop
  endfacet
  facet normal 0 0 -1
    outer loop
      vertex -11.667 -17.4609 0
      vertex -12.6879 -15.4602 0
      vertex -11.1114 -16.6294 0
    endloop
  endfacet
  facet normal 0 0 -1
    outer loop
      vertex -13.3223 -16.2332 0
      vertex -12.6879 -15.4602 0
      vertex -11.667 -17.4609 0
    endloop
  endfacet
  facet normal 0 0 -1
    outer loop
      vertex -13.3223 -16.2332 0
      vertex -14.1421 -14.1421 0
      vertex -12.6879 -15.4602 0
    endloop
  endfacet
  facet normal 0 0 -1
    outer loop
      vertex -14.8492 -14.8492 0
      vertex -14.1421 -14.1421 0
      vertex -13.3223 -16.2332 0
    endloop
  endfacet
  facet normal 0 0 -1
    outer loop
      vertex -14.8492 -14.8492 0
      vertex -15.4602 -12.6879 0
      vertex -14.1421 -14.1421 0
    endloop
  endfacet
  facet normal 0 0 -1
    outer loop
      vertex -16.2332 -13.3223 0
      vertex -15.4602 -12.6879 0
      vertex -14.8492 -14.8492 0
    endloop
  endfacet
  facet normal 0 0 -1
    outer loop
      vertex -16.2332 -13.3223 0
      vertex -16.6294 -11.1114 0
      vertex -15.4602 -12.6879 0
    endloop
  endfacet
  facet normal 0 0 -1
    outer loop
      vertex -17.4609 -11.667 0
      vertex -16.6294 -11.1114 0
      vertex -16.2332 -13.3223 0
    endloop
  endfacet
  facet normal 0 0 -1
    outer loop
      vertex -17.4609 -11.667 0
      vertex -17.6384 -9.42793 0
      vertex -16.6294 -11.1114 0
    endloop
  endfacet
  facet normal 0 0 -1
    outer loop
      vertex -18.5203 -9.89933 0
      vertex -17.6384 -9.42793 0
      vertex -17.4609 -11.667 0
    endloop
  endfacet
  facet normal -0 0 -1
    outer loop
      vertex -17.6384 -9.42793 0
      vertex -18.5203 -9.89933 0
      vertex -18.4776 -7.65367 0
    endloop
  endfacet
  facet normal 0 0 -1
    outer loop
      vertex -19.4015 -8.03635 0
      vertex -18.4776 -7.65367 0
      vertex -18.5203 -9.89933 0
    endloop
  endfacet
  facet normal -0 0 -1
    outer loop
      vertex -18.4776 -7.65367 0
      vertex -19.4015 -8.03635 0
      vertex -19.1388 -5.80569 0
    endloop
  endfacet
  facet normal 0 0 -1
    outer loop
      vertex -20.0957 -6.09598 0
      vertex -19.1388 -5.80569 0
      vertex -19.4015 -8.03635 0
    endloop
  endfacet
  facet normal -0 0 -1
    outer loop
      vertex -19.1388 -5.80569 0
      vertex -20.0957 -6.09598 0
      vertex -19.6157 -3.90181 0
    endloop
  endfacet
  facet normal -0 0 -1
    outer loop
      vertex -19.6157 -3.90181 0
      vertex -20.5965 -4.0969 0
      vertex -19.9037 -1.96034 0
    endloop
  endfacet
  facet normal 0 0 -1
    outer loop
      vertex -20.5965 -4.0969 0
      vertex -19.6157 -3.90181 0
      vertex -20.0957 -6.09598 0
    endloop
  endfacet
  facet normal 0 0 -1
    outer loop
      vertex 19.6157 3.90181 0
      vertex 20.5965 4.0969 0
      vertex 19.9037 1.96034 0
    endloop
  endfacet
  facet normal -0 0 -1
    outer loop
      vertex 20.5965 4.0969 0
      vertex 19.6157 3.90181 0
      vertex 20.0957 6.09598 0
    endloop
  endfacet
  facet normal 0 0 -1
    outer loop
      vertex 19.1388 5.80569 0
      vertex 20.0957 6.09598 0
      vertex 19.6157 3.90181 0
    endloop
  endfacet
  facet normal -0 0 -1
    outer loop
      vertex 20.0957 6.09598 0
      vertex 19.1388 5.80569 0
      vertex 19.4015 8.03635 0
    endloop
  endfacet
  facet normal 0 0 -1
    outer loop
      vertex 18.4776 7.65367 0
      vertex 19.4015 8.03635 0
      vertex 19.1388 5.80569 0
    endloop
  endfacet
  facet normal -0 0 -1
    outer loop
      vertex 19.4015 8.03635 0
      vertex 18.4776 7.65367 0
      vertex 18.5203 9.89933 0
    endloop
  endfacet
  facet normal 0 0 -1
    outer loop
      vertex 17.6384 9.42793 0
      vertex 18.5203 9.89933 0
      vertex 18.4776 7.65367 0
    endloop
  endfacet
  facet normal 0 0 -1
    outer loop
      vertex 17.6384 9.42793 0
      vertex 17.4609 11.667 0
      vertex 18.5203 9.89933 0
    endloop
  endfacet
  facet normal 0 0 -1
    outer loop
      vertex 16.6294 11.1114 0
      vertex 17.4609 11.667 0
      vertex 17.6384 9.42793 0
    endloop
  endfacet
  facet normal 0 0 -1
    outer loop
      vertex 16.6294 11.1114 0
      vertex 16.2332 13.3223 0
      vertex 17.4609 11.667 0
    endloop
  endfacet
  facet normal 0 0 -1
    outer loop
      vertex 15.4602 12.6879 0
      vertex 16.2332 13.3223 0
      vertex 16.6294 11.1114 0
    endloop
  endfacet
  facet normal 0 0 -1
    outer loop
      vertex 15.4602 12.6879 0
      vertex 14.8492 14.8492 0
      vertex 16.2332 13.3223 0
    endloop
  endfacet
  facet normal 0 0 -1
    outer loop
      vertex 14.1421 14.1421 0
      vertex 14.8492 14.8492 0
      vertex 15.4602 12.6879 0
    endloop
  endfacet
  facet normal 0 0 -1
    outer loop
      vertex 14.1421 14.1421 0
      vertex 13.3223 16.2332 0
      vertex 14.8492 14.8492 0
    endloop
  endfacet
  facet normal 0 0 -1
    outer loop
      vertex 12.6879 15.4602 0
      vertex 13.3223 16.2332 0
      vertex 14.1421 14.1421 0
    endloop
  endfacet
  facet normal 0 0 -1
    outer loop
      vertex 12.6879 15.4602 0
      vertex 11.667 17.4609 0
      vertex 13.3223 16.2332 0
    endloop
  endfacet
  facet normal 0 0 -1
    outer loop
      vertex 11.1114 16.6294 0
      vertex 11.667 17.4609 0
      vertex 12.6879 15.4602 0
    endloop
  endfacet
  facet normal 0 0 -1
    outer loop
      vertex 11.1114 16.6294 0
      vertex 9.89933 18.5203 0
      vertex 11.667 17.4609 0
    endloop
  endfacet
  facet normal 0 0 -1
    outer loop
      vertex 9.42793 17.6384 0
      vertex 9.89933 18.5203 0
      vertex 11.1114 16.6294 0
    endloop
  endfacet
  facet normal 0 0 -1
    outer loop
      vertex 9.42793 17.6384 0
      vertex 8.03635 19.4015 0
      vertex 9.89933 18.5203 0
    endloop
  endfacet
  facet normal 0 0 -1
    outer loop
      vertex 7.65367 18.4776 0
      vertex 8.03635 19.4015 0
      vertex 9.42793 17.6384 0
    endloop
  endfacet
  facet normal 0 0 -1
    outer loop
      vertex 7.65367 18.4776 0
      vertex 6.09598 20.0957 0
      vertex 8.03635 19.4015 0
    endloop
  endfacet
  facet normal 0 0 -1
    outer loop
      vertex 5.80569 19.1388 0
      vertex 6.09598 20.0957 0
      vertex 7.65367 18.4776 0
    endloop
  endfacet
  facet normal 0 0 -1
    outer loop
      vertex 5.80569 19.1388 0
      vertex 4.0969 20.5965 0
      vertex 6.09598 20.0957 0
    endloop
  endfacet
  facet normal 0 0 -1
    outer loop
      vertex 3.90181 19.6157 0
      vertex 4.0969 20.5965 0
      vertex 5.80569 19.1388 0
    endloop
  endfacet
  facet normal 0 0 -1
    outer loop
      vertex 3.90181 19.6157 0
      vertex 2.05836 20.8989 0
      vertex 4.0969 20.5965 0
    endloop
  endfacet
  facet normal 0 0 -1
    outer loop
      vertex 1.96034 19.9037 0
      vertex 2.05836 20.8989 0
      vertex 3.90181 19.6157 0
    endloop
  endfacet
  facet normal 0 0 -1
    outer loop
      vertex 0 20 0
      vertex 2.05836 20.8989 0
      vertex 1.96034 19.9037 0
    endloop
  endfacet
  facet normal 0 0 -1
    outer loop
      vertex 0 20 0
      vertex 0 21 0
      vertex 2.05836 20.8989 0
    endloop
  endfacet
  facet normal 0 0 -1
    outer loop
      vertex -1.96034 19.9037 0
      vertex 0 21 0
      vertex 0 20 0
    endloop
  endfacet
  facet normal 0 0 -1
    outer loop
      vertex -1.96034 19.9037 0
      vertex -2.05836 20.8989 0
      vertex 0 21 0
    endloop
  endfacet
  facet normal 0 0 -1
    outer loop
      vertex -3.90181 19.6157 0
      vertex -2.05836 20.8989 0
      vertex -1.96034 19.9037 0
    endloop
  endfacet
  facet normal 0 0 -1
    outer loop
      vertex -3.90181 19.6157 0
      vertex -4.0969 20.5965 0
      vertex -2.05836 20.8989 0
    endloop
  endfacet
  facet normal 0 0 -1
    outer loop
      vertex -5.80569 19.1388 0
      vertex -4.0969 20.5965 0
      vertex -3.90181 19.6157 0
    endloop
  endfacet
  facet normal 0 0 -1
    outer loop
      vertex -5.80569 19.1388 0
      vertex -6.09598 20.0957 0
      vertex -4.0969 20.5965 0
    endloop
  endfacet
  facet normal 0 0 -1
    outer loop
      vertex -7.65367 18.4776 0
      vertex -6.09598 20.0957 0
      vertex -5.80569 19.1388 0
    endloop
  endfacet
  facet normal 0 0 -1
    outer loop
      vertex -7.65367 18.4776 0
      vertex -8.03635 19.4015 0
      vertex -6.09598 20.0957 0
    endloop
  endfacet
  facet normal 0 0 -1
    outer loop
      vertex -9.42793 17.6384 0
      vertex -8.03635 19.4015 0
      vertex -7.65367 18.4776 0
    endloop
  endfacet
  facet normal 0 0 -1
    outer loop
      vertex -9.42793 17.6384 0
      vertex -9.89933 18.5203 0
      vertex -8.03635 19.4015 0
    endloop
  endfacet
  facet normal 0 0 -1
    outer loop
      vertex -11.1114 16.6294 0
      vertex -9.89933 18.5203 0
      vertex -9.42793 17.6384 0
    endloop
  endfacet
  facet normal 0 0 -1
    outer loop
      vertex -11.1114 16.6294 0
      vertex -11.667 17.4609 0
      vertex -9.89933 18.5203 0
    endloop
  endfacet
  facet normal 0 0 -1
    outer loop
      vertex -12.6879 15.4602 0
      vertex -11.667 17.4609 0
      vertex -11.1114 16.6294 0
    endloop
  endfacet
  facet normal 0 0 -1
    outer loop
      vertex -12.6879 15.4602 0
      vertex -13.3223 16.2332 0
      vertex -11.667 17.4609 0
    endloop
  endfacet
  facet normal 0 0 -1
    outer loop
      vertex -14.1421 14.1421 0
      vertex -13.3223 16.2332 0
      vertex -12.6879 15.4602 0
    endloop
  endfacet
  facet normal 0 0 -1
    outer loop
      vertex -14.1421 14.1421 0
      vertex -14.8492 14.8492 0
      vertex -13.3223 16.2332 0
    endloop
  endfacet
  facet normal 0 0 -1
    outer loop
      vertex -15.4602 12.6879 0
      vertex -14.8492 14.8492 0
      vertex -14.1421 14.1421 0
    endloop
  endfacet
  facet normal 0 0 -1
    outer loop
      vertex -15.4602 12.6879 0
      vertex -16.2332 13.3223 0
      vertex -14.8492 14.8492 0
    endloop
  endfacet
  facet normal 0 0 -1
    outer loop
      vertex -16.6294 11.1114 0
      vertex -16.2332 13.3223 0
      vertex -15.4602 12.6879 0
    endloop
  endfacet
  facet normal 0 0 -1
    outer loop
      vertex -16.6294 11.1114 0
      vertex -17.4609 11.667 0
      vertex -16.2332 13.3223 0
    endloop
  endfacet
  facet normal 0 0 -1
    outer loop
      vertex -17.6384 9.42793 0
      vertex -17.4609 11.667 0
      vertex -16.6294 11.1114 0
    endloop
  endfacet
  facet normal 0 0 -1
    outer loop
      vertex -18.5203 9.89933 0
      vertex -17.6384 9.42793 0
      vertex -18.4776 7.65367 0
    endloop
  endfacet
  facet normal 0 0 -1
    outer loop
      vertex -17.6384 9.42793 0
      vertex -18.5203 9.89933 0
      vertex -17.4609 11.667 0
    endloop
  endfacet
  facet normal 0 0 -1
    outer loop
      vertex -19.4015 8.03635 0
      vertex -18.4776 7.65367 0
      vertex -19.1388 5.80569 0
    endloop
  endfacet
  facet normal 0 0 -1
    outer loop
      vertex -18.4776 7.65367 0
      vertex -19.4015 8.03635 0
      vertex -18.5203 9.89933 0
    endloop
  endfacet
  facet normal 0 0 -1
    outer loop
      vertex -20.0957 6.09598 0
      vertex -19.1388 5.80569 0
      vertex -19.6157 3.90181 0
    endloop
  endfacet
  facet normal 0 0 -1
    outer loop
      vertex -20.5965 4.0969 0
      vertex -19.6157 3.90181 0
      vertex -19.9037 1.96034 0
    endloop
  endfacet
  facet normal 0 0 -1
    outer loop
      vertex -19.1388 5.80569 0
      vertex -20.0957 6.09598 0
      vertex -19.4015 8.03635 0
    endloop
  endfacet
  facet normal 0 0 -1
    outer loop
      vertex -20.8989 2.05836 0
      vertex -19.9037 1.96034 0
      vertex -20 0 0
    endloop
  endfacet
  facet normal 0 0 -1
    outer loop
      vertex -20.8989 -2.05836 0
      vertex -19.9037 -1.96034 0
      vertex -20.5965 -4.0969 0
    endloop
  endfacet
  facet normal -0 0 -1
    outer loop
      vertex -19.9037 -1.96034 0
      vertex -20.8989 -2.05836 0
      vertex -20 0 0
    endloop
  endfacet
  facet normal 0 0 -1
    outer loop
      vertex -19.6157 3.90181 0
      vertex -20.5965 4.0969 0
      vertex -20.0957 6.09598 0
    endloop
  endfacet
  facet normal 0 0 -1
    outer loop
      vertex -21 0 0
      vertex -20 0 0
      vertex -20.8989 -2.05836 0
    endloop
  endfacet
  facet normal 0 0 -1
    outer loop
      vertex -19.9037 1.96034 0
      vertex -20.8989 2.05836 0
      vertex -20.5965 4.0969 0
    endloop
  endfacet
  facet normal 0 0 -1
    outer loop
      vertex -20 0 0
      vertex -21 0 0
      vertex -20.8989 2.05836 0
    endloop
  endfacet
  facet normal 0.85775 0.514067 0
    outer loop
      vertex 18.5203 9.89933 80
      vertex 17.4609 11.667 0
      vertex 17.4609 11.667 80
    endloop
  endfacet
  facet normal 0.85775 0.514067 0
    outer loop
      vertex 17.4609 11.667 0
      vertex 18.5203 9.89933 80
      vertex 18.5203 9.89933 0
    endloop
  endfacet
  facet normal 0.989176 -0.146736 0
    outer loop
      vertex 20.5965 -4.0969 80
      vertex 20.8989 -2.05836 0
      vertex 20.8989 -2.05836 80
    endloop
  endfacet
  facet normal 0.989176 -0.146736 0
    outer loop
      vertex 20.8989 -2.05836 0
      vertex 20.5965 -4.0969 80
      vertex 20.5965 -4.0969 0
    endloop
  endfacet
  facet normal -0.146736 -0.989176 0
    outer loop
      vertex -4.0969 -20.5965 0
      vertex -2.05836 -20.8989 80
      vertex -4.0969 -20.5965 80
    endloop
  endfacet
  facet normal -0.146736 -0.989176 -0
    outer loop
      vertex -2.05836 -20.8989 80
      vertex -4.0969 -20.5965 0
      vertex -2.05836 -20.8989 0
    endloop
  endfacet
  facet normal -0.595714 0.803197 0
    outer loop
      vertex -11.667 17.4609 0
      vertex -13.3223 16.2332 80
      vertex -11.667 17.4609 80
    endloop
  endfacet
  facet normal -0.595714 0.803197 0
    outer loop
      vertex -13.3223 16.2332 80
      vertex -11.667 17.4609 0
      vertex -13.3223 16.2332 0
    endloop
  endfacet
  facet normal 0.970025 -0.243006 0
    outer loop
      vertex 20.0957 -6.09598 80
      vertex 20.5965 -4.0969 0
      vertex 20.5965 -4.0969 80
    endloop
  endfacet
  facet normal 0.970025 -0.243006 0
    outer loop
      vertex 20.5965 -4.0969 0
      vertex 20.0957 -6.09598 80
      vertex 20.0957 -6.09598 0
    endloop
  endfacet
  facet normal -0.989176 0.146736 0
    outer loop
      vertex -20.8989 2.05836 0
      vertex -20.5965 4.0969 80
      vertex -20.5965 4.0969 0
    endloop
  endfacet
  facet normal -0.989176 0.146736 0
    outer loop
      vertex -20.5965 4.0969 80
      vertex -20.8989 2.05836 0
      vertex -20.8989 2.05836 80
    endloop
  endfacet
  facet normal -0.941556 -0.336857 0
    outer loop
      vertex -19.4015 -8.03635 0
      vertex -20.0957 -6.09598 80
      vertex -20.0957 -6.09598 0
    endloop
  endfacet
  facet normal -0.941556 -0.336857 0
    outer loop
      vertex -20.0957 -6.09598 80
      vertex -19.4015 -8.03635 0
      vertex -19.4015 -8.03635 80
    endloop
  endfacet
  facet normal -0.998796 -0.0490576 0
    outer loop
      vertex -20.8989 -2.05836 0
      vertex -21 0 80
      vertex -21 0 0
    endloop
  endfacet
  facet normal -0.998796 -0.0490576 0
    outer loop
      vertex -21 0 80
      vertex -20.8989 -2.05836 0
      vertex -20.8989 -2.05836 80
    endloop
  endfacet
  facet normal 0.243006 0.970025 -0
    outer loop
      vertex 6.09598 20.0957 0
      vertex 4.0969 20.5965 80
      vertex 6.09598 20.0957 80
    endloop
  endfacet
  facet normal 0.243006 0.970025 0
    outer loop
      vertex 4.0969 20.5965 80
      vertex 6.09598 20.0957 0
      vertex 4.0969 20.5965 0
    endloop
  endfacet
  facet normal 0.514067 0.85775 -0
    outer loop
      vertex 11.667 17.4609 0
      vertex 9.89933 18.5203 80
      vertex 11.667 17.4609 80
    endloop
  endfacet
  facet normal 0.514067 0.85775 0
    outer loop
      vertex 9.89933 18.5203 80
      vertex 11.667 17.4609 0
      vertex 9.89933 18.5203 0
    endloop
  endfacet
  facet normal 0.998796 -0.0490576 0
    outer loop
      vertex 20.8989 -2.05836 80
      vertex 21 0 0
      vertex 21 0 80
    endloop
  endfacet
  facet normal 0.998796 -0.0490576 0
    outer loop
      vertex 21 0 0
      vertex 20.8989 -2.05836 80
      vertex 20.8989 -2.05836 0
    endloop
  endfacet
  facet normal 0.903975 -0.427585 0
    outer loop
      vertex 18.5203 -9.89933 80
      vertex 19.4015 -8.03635 0
      vertex 19.4015 -8.03635 80
    endloop
  endfacet
  facet normal 0.903975 -0.427585 0
    outer loop
      vertex 19.4015 -8.03635 0
      vertex 18.5203 -9.89933 80
      vertex 18.5203 -9.89933 0
    endloop
  endfacet
  facet normal -0.0490576 0.998796 0
    outer loop
      vertex 0 21 0
      vertex -2.05836 20.8989 80
      vertex 0 21 80
    endloop
  endfacet
  facet normal -0.0490576 0.998796 0
    outer loop
      vertex -2.05836 20.8989 80
      vertex 0 21 0
      vertex -2.05836 20.8989 0
    endloop
  endfacet
  facet normal -0.970025 0.243006 0
    outer loop
      vertex -20.5965 4.0969 0
      vertex -20.0957 6.09598 80
      vertex -20.0957 6.09598 0
    endloop
  endfacet
  facet normal -0.970025 0.243006 0
    outer loop
      vertex -20.0957 6.09598 80
      vertex -20.5965 4.0969 0
      vertex -20.5965 4.0969 80
    endloop
  endfacet
  facet normal 0.803197 0.595714 0
    outer loop
      vertex 17.4609 11.667 80
      vertex 16.2332 13.3223 0
      vertex 16.2332 13.3223 80
    endloop
  endfacet
  facet normal 0.803197 0.595714 0
    outer loop
      vertex 16.2332 13.3223 0
      vertex 17.4609 11.667 80
      vertex 17.4609 11.667 0
    endloop
  endfacet
  facet normal 0.595714 0.803197 -0
    outer loop
      vertex 13.3223 16.2332 0
      vertex 11.667 17.4609 80
      vertex 13.3223 16.2332 80
    endloop
  endfacet
  facet normal 0.595714 0.803197 0
    outer loop
      vertex 11.667 17.4609 80
      vertex 13.3223 16.2332 0
      vertex 11.667 17.4609 0
    endloop
  endfacet
  facet normal 0.0490576 -0.998796 0
    outer loop
      vertex 0 -21 0
      vertex 2.05836 -20.8989 80
      vertex 0 -21 80
    endloop
  endfacet
  facet normal 0.0490576 -0.998796 0
    outer loop
      vertex 2.05836 -20.8989 80
      vertex 0 -21 0
      vertex 2.05836 -20.8989 0
    endloop
  endfacet
  facet normal 0.941556 0.336857 0
    outer loop
      vertex 20.0957 6.09598 80
      vertex 19.4015 8.03635 0
      vertex 19.4015 8.03635 80
    endloop
  endfacet
  facet normal 0.941556 0.336857 0
    outer loop
      vertex 19.4015 8.03635 0
      vertex 20.0957 6.09598 80
      vertex 20.0957 6.09598 0
    endloop
  endfacet
  facet normal 0.941556 -0.336857 0
    outer loop
      vertex 19.4015 -8.03635 80
      vertex 20.0957 -6.09598 0
      vertex 20.0957 -6.09598 80
    endloop
  endfacet
  facet normal 0.941556 -0.336857 0
    outer loop
      vertex 20.0957 -6.09598 0
      vertex 19.4015 -8.03635 80
      vertex 19.4015 -8.03635 0
    endloop
  endfacet
  facet normal -0.243006 0.970025 0
    outer loop
      vertex -4.0969 20.5965 0
      vertex -6.09598 20.0957 80
      vertex -4.0969 20.5965 80
    endloop
  endfacet
  facet normal -0.243006 0.970025 0
    outer loop
      vertex -6.09598 20.0957 80
      vertex -4.0969 20.5965 0
      vertex -6.09598 20.0957 0
    endloop
  endfacet
  facet normal -0.903975 0.427585 0
    outer loop
      vertex -19.4015 8.03635 0
      vertex -18.5203 9.89933 80
      vertex -18.5203 9.89933 0
    endloop
  endfacet
  facet normal -0.903975 0.427585 0
    outer loop
      vertex -18.5203 9.89933 80
      vertex -19.4015 8.03635 0
      vertex -19.4015 8.03635 80
    endloop
  endfacet
  facet normal -0.427585 -0.903975 0
    outer loop
      vertex -9.89933 -18.5203 0
      vertex -8.03635 -19.4015 80
      vertex -9.89933 -18.5203 80
    endloop
  endfacet
  facet normal -0.427585 -0.903975 -0
    outer loop
      vertex -8.03635 -19.4015 80
      vertex -9.89933 -18.5203 0
      vertex -8.03635 -19.4015 0
    endloop
  endfacet
  facet normal 0.903975 0.427585 0
    outer loop
      vertex 19.4015 8.03635 80
      vertex 18.5203 9.89933 0
      vertex 18.5203 9.89933 80
    endloop
  endfacet
  facet normal 0.903975 0.427585 0
    outer loop
      vertex 18.5203 9.89933 0
      vertex 19.4015 8.03635 80
      vertex 19.4015 8.03635 0
    endloop
  endfacet
  facet normal 0.595714 -0.803197 0
    outer loop
      vertex 11.667 -17.4609 0
      vertex 13.3223 -16.2332 80
      vertex 11.667 -17.4609 80
    endloop
  endfacet
  facet normal 0.595714 -0.803197 0
    outer loop
      vertex 13.3223 -16.2332 80
      vertex 11.667 -17.4609 0
      vertex 13.3223 -16.2332 0
    endloop
  endfacet
  facet normal -0.146736 0.989176 0
    outer loop
      vertex -2.05836 20.8989 0
      vertex -4.0969 20.5965 80
      vertex -2.05836 20.8989 80
    endloop
  endfacet
  facet normal -0.146736 0.989176 0
    outer loop
      vertex -4.0969 20.5965 80
      vertex -2.05836 20.8989 0
      vertex -4.0969 20.5965 0
    endloop
  endfacet
  facet normal 0.243006 -0.970025 0
    outer loop
      vertex 4.0969 -20.5965 0
      vertex 6.09598 -20.0957 80
      vertex 4.0969 -20.5965 80
    endloop
  endfacet
  facet normal 0.243006 -0.970025 0
    outer loop
      vertex 6.09598 -20.0957 80
      vertex 4.0969 -20.5965 0
      vertex 6.09598 -20.0957 0
    endloop
  endfacet
  facet normal -0.740927 -0.671585 0
    outer loop
      vertex -14.8492 -14.8492 0
      vertex -16.2332 -13.3223 80
      vertex -16.2332 -13.3223 0
    endloop
  endfacet
  facet normal -0.740927 -0.671585 0
    outer loop
      vertex -16.2332 -13.3223 80
      vertex -14.8492 -14.8492 0
      vertex -14.8492 -14.8492 80
    endloop
  endfacet
  facet normal -0.85775 -0.514067 0
    outer loop
      vertex -17.4609 -11.667 0
      vertex -18.5203 -9.89933 80
      vertex -18.5203 -9.89933 0
    endloop
  endfacet
  facet normal -0.85775 -0.514067 0
    outer loop
      vertex -18.5203 -9.89933 80
      vertex -17.4609 -11.667 0
      vertex -17.4609 -11.667 80
    endloop
  endfacet
  facet normal -0.336857 0.941556 0
    outer loop
      vertex -6.09598 20.0957 0
      vertex -8.03635 19.4015 80
      vertex -6.09598 20.0957 80
    endloop
  endfacet
  facet normal -0.336857 0.941556 0
    outer loop
      vertex -8.03635 19.4015 80
      vertex -6.09598 20.0957 0
      vertex -8.03635 19.4015 0
    endloop
  endfacet
  facet normal 0.336857 0.941556 -0
    outer loop
      vertex 8.03635 19.4015 0
      vertex 6.09598 20.0957 80
      vertex 8.03635 19.4015 80
    endloop
  endfacet
  facet normal 0.336857 0.941556 0
    outer loop
      vertex 6.09598 20.0957 80
      vertex 8.03635 19.4015 0
      vertex 6.09598 20.0957 0
    endloop
  endfacet
  facet normal -0.514067 -0.85775 0
    outer loop
      vertex -11.667 -17.4609 0
      vertex -9.89933 -18.5203 80
      vertex -11.667 -17.4609 80
    endloop
  endfacet
  facet normal -0.514067 -0.85775 -0
    outer loop
      vertex -9.89933 -18.5203 80
      vertex -11.667 -17.4609 0
      vertex -9.89933 -18.5203 0
    endloop
  endfacet
  facet normal -0.941556 0.336857 0
    outer loop
      vertex -20.0957 6.09598 0
      vertex -19.4015 8.03635 80
      vertex -19.4015 8.03635 0
    endloop
  endfacet
  facet normal -0.941556 0.336857 0
    outer loop
      vertex -19.4015 8.03635 80
      vertex -20.0957 6.09598 0
      vertex -20.0957 6.09598 80
    endloop
  endfacet
  facet normal -0.803197 -0.595714 0
    outer loop
      vertex -16.2332 -13.3223 0
      vertex -17.4609 -11.667 80
      vertex -17.4609 -11.667 0
    endloop
  endfacet
  facet normal -0.803197 -0.595714 0
    outer loop
      vertex -17.4609 -11.667 80
      vertex -16.2332 -13.3223 0
      vertex -16.2332 -13.3223 80
    endloop
  endfacet
  facet normal -0.85775 0.514067 0
    outer loop
      vertex -18.5203 9.89933 0
      vertex -17.4609 11.667 80
      vertex -17.4609 11.667 0
    endloop
  endfacet
  facet normal -0.85775 0.514067 0
    outer loop
      vertex -17.4609 11.667 80
      vertex -18.5203 9.89933 0
      vertex -18.5203 9.89933 80
    endloop
  endfacet
  facet normal -0.989176 -0.146736 0
    outer loop
      vertex -20.5965 -4.0969 0
      vertex -20.8989 -2.05836 80
      vertex -20.8989 -2.05836 0
    endloop
  endfacet
  facet normal -0.989176 -0.146736 0
    outer loop
      vertex -20.8989 -2.05836 80
      vertex -20.5965 -4.0969 0
      vertex -20.5965 -4.0969 80
    endloop
  endfacet
  facet normal -0.243006 -0.970025 0
    outer loop
      vertex -6.09598 -20.0957 0
      vertex -4.0969 -20.5965 80
      vertex -6.09598 -20.0957 80
    endloop
  endfacet
  facet normal -0.243006 -0.970025 -0
    outer loop
      vertex -4.0969 -20.5965 80
      vertex -6.09598 -20.0957 0
      vertex -4.0969 -20.5965 0
    endloop
  endfacet
  facet normal 0.514067 -0.85775 0
    outer loop
      vertex 9.89933 -18.5203 0
      vertex 11.667 -17.4609 80
      vertex 9.89933 -18.5203 80
    endloop
  endfacet
  facet normal 0.514067 -0.85775 0
    outer loop
      vertex 11.667 -17.4609 80
      vertex 9.89933 -18.5203 0
      vertex 11.667 -17.4609 0
    endloop
  endfacet
  facet normal -0.671585 -0.740927 0
    outer loop
      vertex -14.8492 -14.8492 0
      vertex -13.3223 -16.2332 80
      vertex -14.8492 -14.8492 80
    endloop
  endfacet
  facet normal -0.671585 -0.740927 -0
    outer loop
      vertex -13.3223 -16.2332 80
      vertex -14.8492 -14.8492 0
      vertex -13.3223 -16.2332 0
    endloop
  endfacet
  facet normal -0.803197 0.595714 0
    outer loop
      vertex -17.4609 11.667 0
      vertex -16.2332 13.3223 80
      vertex -16.2332 13.3223 0
    endloop
  endfacet
  facet normal -0.803197 0.595714 0
    outer loop
      vertex -16.2332 13.3223 80
      vertex -17.4609 11.667 0
      vertex -17.4609 11.667 80
    endloop
  endfacet
  facet normal 0.0490576 0.998796 -0
    outer loop
      vertex 2.05836 20.8989 0
      vertex 0 21 80
      vertex 2.05836 20.8989 80
    endloop
  endfacet
  facet normal 0.0490576 0.998796 0
    outer loop
      vertex 0 21 80
      vertex 2.05836 20.8989 0
      vertex 0 21 0
    endloop
  endfacet
  facet normal -0.0490576 -0.998796 0
    outer loop
      vertex -2.05836 -20.8989 0
      vertex 0 -21 80
      vertex -2.05836 -20.8989 80
    endloop
  endfacet
  facet normal -0.0490576 -0.998796 -0
    outer loop
      vertex 0 -21 80
      vertex -2.05836 -20.8989 0
      vertex 0 -21 0
    endloop
  endfacet
  facet normal 0 0 1
    outer loop
      vertex 20 0 80
      vertex 21 0 80
      vertex 20.8989 2.05836 80
    endloop
  endfacet
  facet normal 0 0 1
    outer loop
      vertex 19.9037 1.96034 80
      vertex 20.8989 2.05836 80
      vertex 20.5965 4.0969 80
    endloop
  endfacet
  facet normal 0 0 1
    outer loop
      vertex 21 0 80
      vertex 20 0 80
      vertex 20.8989 -2.05836 80
    endloop
  endfacet
  facet normal 0 0 1
    outer loop
      vertex 19.6157 3.90181 80
      vertex 20.5965 4.0969 80
      vertex 20.0957 6.09598 80
    endloop
  endfacet
  facet normal -0 0 1
    outer loop
      vertex 19.9037 -1.96034 80
      vertex 20.8989 -2.05836 80
      vertex 20 0 80
    endloop
  endfacet
  facet normal 0 0 1
    outer loop
      vertex 20.8989 -2.05836 80
      vertex 19.9037 -1.96034 80
      vertex 20.5965 -4.0969 80
    endloop
  endfacet
  facet normal 0 0 1
    outer loop
      vertex 20.8989 2.05836 80
      vertex 19.9037 1.96034 80
      vertex 20 0 80
    endloop
  endfacet
  facet normal 0 0 1
    outer loop
      vertex 20.5965 4.0969 80
      vertex 19.6157 3.90181 80
      vertex 19.9037 1.96034 80
    endloop
  endfacet
  facet normal 0 0 1
    outer loop
      vertex 19.1388 5.80569 80
      vertex 20.0957 6.09598 80
      vertex 19.4015 8.03635 80
    endloop
  endfacet
  facet normal 0 0 1
    outer loop
      vertex 20.0957 6.09598 80
      vertex 19.1388 5.80569 80
      vertex 19.6157 3.90181 80
    endloop
  endfacet
  facet normal 0 0 1
    outer loop
      vertex 18.4776 7.65367 80
      vertex 19.4015 8.03635 80
      vertex 18.5203 9.89933 80
    endloop
  endfacet
  facet normal 0 0 1
    outer loop
      vertex 19.4015 8.03635 80
      vertex 18.4776 7.65367 80
      vertex 19.1388 5.80569 80
    endloop
  endfacet
  facet normal 0 0 1
    outer loop
      vertex 18.5203 9.89933 80
      vertex 17.6384 9.42793 80
      vertex 18.4776 7.65367 80
    endloop
  endfacet
  facet normal 0 0 1
    outer loop
      vertex 17.4609 11.667 80
      vertex 17.6384 9.42793 80
      vertex 18.5203 9.89933 80
    endloop
  endfacet
  facet normal 0 0 1
    outer loop
      vertex 17.4609 11.667 80
      vertex 16.6294 11.1114 80
      vertex 17.6384 9.42793 80
    endloop
  endfacet
  facet normal 0 0 1
    outer loop
      vertex 16.2332 13.3223 80
      vertex 16.6294 11.1114 80
      vertex 17.4609 11.667 80
    endloop
  endfacet
  facet normal 0 0 1
    outer loop
      vertex 16.2332 13.3223 80
      vertex 15.4602 12.6879 80
      vertex 16.6294 11.1114 80
    endloop
  endfacet
  facet normal 0 0 1
    outer loop
      vertex 14.8492 14.8492 80
      vertex 15.4602 12.6879 80
      vertex 16.2332 13.3223 80
    endloop
  endfacet
  facet normal 0 0 1
    outer loop
      vertex 14.8492 14.8492 80
      vertex 14.1421 14.1421 80
      vertex 15.4602 12.6879 80
    endloop
  endfacet
  facet normal 0 0 1
    outer loop
      vertex 13.3223 16.2332 80
      vertex 14.1421 14.1421 80
      vertex 14.8492 14.8492 80
    endloop
  endfacet
  facet normal 0 0 1
    outer loop
      vertex 13.3223 16.2332 80
      vertex 12.6879 15.4602 80
      vertex 14.1421 14.1421 80
    endloop
  endfacet
  facet normal 0 0 1
    outer loop
      vertex 11.667 17.4609 80
      vertex 12.6879 15.4602 80
      vertex 13.3223 16.2332 80
    endloop
  endfacet
  facet normal 0 0 1
    outer loop
      vertex 11.667 17.4609 80
      vertex 11.1114 16.6294 80
      vertex 12.6879 15.4602 80
    endloop
  endfacet
  facet normal 0 0 1
    outer loop
      vertex 9.89933 18.5203 80
      vertex 11.1114 16.6294 80
      vertex 11.667 17.4609 80
    endloop
  endfacet
  facet normal 0 0 1
    outer loop
      vertex 9.89933 18.5203 80
      vertex 9.42793 17.6384 80
      vertex 11.1114 16.6294 80
    endloop
  endfacet
  facet normal 0 0 1
    outer loop
      vertex 8.03635 19.4015 80
      vertex 9.42793 17.6384 80
      vertex 9.89933 18.5203 80
    endloop
  endfacet
  facet normal 0 0 1
    outer loop
      vertex 8.03635 19.4015 80
      vertex 7.65367 18.4776 80
      vertex 9.42793 17.6384 80
    endloop
  endfacet
  facet normal 0 0 1
    outer loop
      vertex 6.09598 20.0957 80
      vertex 7.65367 18.4776 80
      vertex 8.03635 19.4015 80
    endloop
  endfacet
  facet normal 0 0 1
    outer loop
      vertex 6.09598 20.0957 80
      vertex 5.80569 19.1388 80
      vertex 7.65367 18.4776 80
    endloop
  endfacet
  facet normal 0 0 1
    outer loop
      vertex 4.0969 20.5965 80
      vertex 5.80569 19.1388 80
      vertex 6.09598 20.0957 80
    endloop
  endfacet
  facet normal 0 0 1
    outer loop
      vertex 4.0969 20.5965 80
      vertex 3.90181 19.6157 80
      vertex 5.80569 19.1388 80
    endloop
  endfacet
  facet normal 0 0 1
    outer loop
      vertex 2.05836 20.8989 80
      vertex 3.90181 19.6157 80
      vertex 4.0969 20.5965 80
    endloop
  endfacet
  facet normal 0 0 1
    outer loop
      vertex 2.05836 20.8989 80
      vertex 1.96034 19.9037 80
      vertex 3.90181 19.6157 80
    endloop
  endfacet
  facet normal 0 0 1
    outer loop
      vertex 0 21 80
      vertex 1.96034 19.9037 80
      vertex 2.05836 20.8989 80
    endloop
  endfacet
  facet normal 0 0 1
    outer loop
      vertex 0 21 80
      vertex 0 20 80
      vertex 1.96034 19.9037 80
    endloop
  endfacet
  facet normal 0 0 1
    outer loop
      vertex 0 21 80
      vertex -1.96034 19.9037 80
      vertex 0 20 80
    endloop
  endfacet
  facet normal -0 0 1
    outer loop
      vertex -2.05836 20.8989 80
      vertex -1.96034 19.9037 80
      vertex 0 21 80
    endloop
  endfacet
  facet normal 0 0 1
    outer loop
      vertex -2.05836 20.8989 80
      vertex -3.90181 19.6157 80
      vertex -1.96034 19.9037 80
    endloop
  endfacet
  facet normal -0 0 1
    outer loop
      vertex -4.0969 20.5965 80
      vertex -3.90181 19.6157 80
      vertex -2.05836 20.8989 80
    endloop
  endfacet
  facet normal 0 0 1
    outer loop
      vertex -4.0969 20.5965 80
      vertex -5.80569 19.1388 80
      vertex -3.90181 19.6157 80
    endloop
  endfacet
  facet normal -0 0 1
    outer loop
      vertex -6.09598 20.0957 80
      vertex -5.80569 19.1388 80
      vertex -4.0969 20.5965 80
    endloop
  endfacet
  facet normal 0 0 1
    outer loop
      vertex -6.09598 20.0957 80
      vertex -7.65367 18.4776 80
      vertex -5.80569 19.1388 80
    endloop
  endfacet
  facet normal -0 0 1
    outer loop
      vertex -8.03635 19.4015 80
      vertex -7.65367 18.4776 80
      vertex -6.09598 20.0957 80
    endloop
  endfacet
  facet normal 0 0 1
    outer loop
      vertex -8.03635 19.4015 80
      vertex -9.42793 17.6384 80
      vertex -7.65367 18.4776 80
    endloop
  endfacet
  facet normal -0 0 1
    outer loop
      vertex -9.89933 18.5203 80
      vertex -9.42793 17.6384 80
      vertex -8.03635 19.4015 80
    endloop
  endfacet
  facet normal 0 0 1
    outer loop
      vertex -9.89933 18.5203 80
      vertex -11.1114 16.6294 80
      vertex -9.42793 17.6384 80
    endloop
  endfacet
  facet normal -0 0 1
    outer loop
      vertex -11.667 17.4609 80
      vertex -11.1114 16.6294 80
      vertex -9.89933 18.5203 80
    endloop
  endfacet
  facet normal 0 0 1
    outer loop
      vertex -11.667 17.4609 80
      vertex -12.6879 15.4602 80
      vertex -11.1114 16.6294 80
    endloop
  endfacet
  facet normal -0 0 1
    outer loop
      vertex -13.3223 16.2332 80
      vertex -12.6879 15.4602 80
      vertex -11.667 17.4609 80
    endloop
  endfacet
  facet normal 0 0 1
    outer loop
      vertex -13.3223 16.2332 80
      vertex -14.1421 14.1421 80
      vertex -12.6879 15.4602 80
    endloop
  endfacet
  facet normal -0 0 1
    outer loop
      vertex -14.8492 14.8492 80
      vertex -14.1421 14.1421 80
      vertex -13.3223 16.2332 80
    endloop
  endfacet
  facet normal 0 0 1
    outer loop
      vertex -14.8492 14.8492 80
      vertex -15.4602 12.6879 80
      vertex -14.1421 14.1421 80
    endloop
  endfacet
  facet normal -0 0 1
    outer loop
      vertex -16.2332 13.3223 80
      vertex -15.4602 12.6879 80
      vertex -14.8492 14.8492 80
    endloop
  endfacet
  facet normal 0 0 1
    outer loop
      vertex -16.2332 13.3223 80
      vertex -16.6294 11.1114 80
      vertex -15.4602 12.6879 80
    endloop
  endfacet
  facet normal -0 0 1
    outer loop
      vertex -17.4609 11.667 80
      vertex -16.6294 11.1114 80
      vertex -16.2332 13.3223 80
    endloop
  endfacet
  facet normal 0 0 1
    outer loop
      vertex -17.4609 11.667 80
      vertex -17.6384 9.42793 80
      vertex -16.6294 11.1114 80
    endloop
  endfacet
  facet normal -0 0 1
    outer loop
      vertex -18.5203 9.89933 80
      vertex -17.6384 9.42793 80
      vertex -17.4609 11.667 80
    endloop
  endfacet
  facet normal 0 0 1
    outer loop
      vertex -17.6384 9.42793 80
      vertex -18.5203 9.89933 80
      vertex -18.4776 7.65367 80
    endloop
  endfacet
  facet normal -0 0 1
    outer loop
      vertex -19.4015 8.03635 80
      vertex -18.4776 7.65367 80
      vertex -18.5203 9.89933 80
    endloop
  endfacet
  facet normal 0 0 1
    outer loop
      vertex -18.4776 7.65367 80
      vertex -19.4015 8.03635 80
      vertex -19.1388 5.80569 80
    endloop
  endfacet
  facet normal -0 0 1
    outer loop
      vertex -20.0957 6.09598 80
      vertex -19.1388 5.80569 80
      vertex -19.4015 8.03635 80
    endloop
  endfacet
  facet normal 0 0 1
    outer loop
      vertex -19.1388 5.80569 80
      vertex -20.0957 6.09598 80
      vertex -19.6157 3.90181 80
    endloop
  endfacet
  facet normal 0 0 1
    outer loop
      vertex -19.6157 3.90181 80
      vertex -20.5965 4.0969 80
      vertex -19.9037 1.96034 80
    endloop
  endfacet
  facet normal -0 0 1
    outer loop
      vertex -20.5965 4.0969 80
      vertex -19.6157 3.90181 80
      vertex -20.0957 6.09598 80
    endloop
  endfacet
  facet normal -0 0 1
    outer loop
      vertex 19.6157 -3.90181 80
      vertex 20.5965 -4.0969 80
      vertex 19.9037 -1.96034 80
    endloop
  endfacet
  facet normal 0 0 1
    outer loop
      vertex 20.5965 -4.0969 80
      vertex 19.6157 -3.90181 80
      vertex 20.0957 -6.09598 80
    endloop
  endfacet
  facet normal -0 0 1
    outer loop
      vertex 19.1388 -5.80569 80
      vertex 20.0957 -6.09598 80
      vertex 19.6157 -3.90181 80
    endloop
  endfacet
  facet normal 0 0 1
    outer loop
      vertex 20.0957 -6.09598 80
      vertex 19.1388 -5.80569 80
      vertex 19.4015 -8.03635 80
    endloop
  endfacet
  facet normal -0 0 1
    outer loop
      vertex 18.4776 -7.65367 80
      vertex 19.4015 -8.03635 80
      vertex 19.1388 -5.80569 80
    endloop
  endfacet
  facet normal 0 0 1
    outer loop
      vertex 19.4015 -8.03635 80
      vertex 18.4776 -7.65367 80
      vertex 18.5203 -9.89933 80
    endloop
  endfacet
  facet normal -0 0 1
    outer loop
      vertex 17.6384 -9.42793 80
      vertex 18.5203 -9.89933 80
      vertex 18.4776 -7.65367 80
    endloop
  endfacet
  facet normal 0 0 1
    outer loop
      vertex 17.6384 -9.42793 80
      vertex 17.4609 -11.667 80
      vertex 18.5203 -9.89933 80
    endloop
  endfacet
  facet normal -0 0 1
    outer loop
      vertex 16.6294 -11.1114 80
      vertex 17.4609 -11.667 80
      vertex 17.6384 -9.42793 80
    endloop
  endfacet
  facet normal 0 0 1
    outer loop
      vertex 16.6294 -11.1114 80
      vertex 16.2332 -13.3223 80
      vertex 17.4609 -11.667 80
    endloop
  endfacet
  facet normal -0 0 1
    outer loop
      vertex 15.4602 -12.6879 80
      vertex 16.2332 -13.3223 80
      vertex 16.6294 -11.1114 80
    endloop
  endfacet
  facet normal 0 0 1
    outer loop
      vertex 15.4602 -12.6879 80
      vertex 14.8492 -14.8492 80
      vertex 16.2332 -13.3223 80
    endloop
  endfacet
  facet normal -0 0 1
    outer loop
      vertex 14.1421 -14.1421 80
      vertex 14.8492 -14.8492 80
      vertex 15.4602 -12.6879 80
    endloop
  endfacet
  facet normal 0 0 1
    outer loop
      vertex 14.1421 -14.1421 80
      vertex 13.3223 -16.2332 80
      vertex 14.8492 -14.8492 80
    endloop
  endfacet
  facet normal -0 0 1
    outer loop
      vertex 12.6879 -15.4602 80
      vertex 13.3223 -16.2332 80
      vertex 14.1421 -14.1421 80
    endloop
  endfacet
  facet normal 0 0 1
    outer loop
      vertex 12.6879 -15.4602 80
      vertex 11.667 -17.4609 80
      vertex 13.3223 -16.2332 80
    endloop
  endfacet
  facet normal -0 0 1
    outer loop
      vertex 11.1114 -16.6294 80
      vertex 11.667 -17.4609 80
      vertex 12.6879 -15.4602 80
    endloop
  endfacet
  facet normal 0 0 1
    outer loop
      vertex 11.1114 -16.6294 80
      vertex 9.89933 -18.5203 80
      vertex 11.667 -17.4609 80
    endloop
  endfacet
  facet normal -0 0 1
    outer loop
      vertex 9.42793 -17.6384 80
      vertex 9.89933 -18.5203 80
      vertex 11.1114 -16.6294 80
    endloop
  endfacet
  facet normal 0 0 1
    outer loop
      vertex 9.42793 -17.6384 80
      vertex 8.03635 -19.4015 80
      vertex 9.89933 -18.5203 80
    endloop
  endfacet
  facet normal -0 0 1
    outer loop
      vertex 7.65367 -18.4776 80
      vertex 8.03635 -19.4015 80
      vertex 9.42793 -17.6384 80
    endloop
  endfacet
  facet normal 0 0 1
    outer loop
      vertex 7.65367 -18.4776 80
      vertex 6.09598 -20.0957 80
      vertex 8.03635 -19.4015 80
    endloop
  endfacet
  facet normal -0 0 1
    outer loop
      vertex 5.80569 -19.1388 80
      vertex 6.09598 -20.0957 80
      vertex 7.65367 -18.4776 80
    endloop
  endfacet
  facet normal 0 0 1
    outer loop
      vertex 5.80569 -19.1388 80
      vertex 4.0969 -20.5965 80
      vertex 6.09598 -20.0957 80
    endloop
  endfacet
  facet normal -0 0 1
    outer loop
      vertex 3.90181 -19.6157 80
      vertex 4.0969 -20.5965 80
      vertex 5.80569 -19.1388 80
    endloop
  endfacet
  facet normal 0 0 1
    outer loop
      vertex 3.90181 -19.6157 80
      vertex 2.05836 -20.8989 80
      vertex 4.0969 -20.5965 80
    endloop
  endfacet
  facet normal -0 0 1
    outer loop
      vertex 1.96034 -19.9037 80
      vertex 2.05836 -20.8989 80
      vertex 3.90181 -19.6157 80
    endloop
  endfacet
  facet normal -0 0 1
    outer loop
      vertex 0 -20 80
      vertex 2.05836 -20.8989 80
      vertex 1.96034 -19.9037 80
    endloop
  endfacet
  facet normal 0 0 1
    outer loop
      vertex 0 -20 80
      vertex 0 -21 80
      vertex 2.05836 -20.8989 80
    endloop
  endfacet
  facet normal 0 0 1
    outer loop
      vertex -1.96034 -19.9037 80
      vertex 0 -21 80
      vertex 0 -20 80
    endloop
  endfacet
  facet normal 0 0 1
    outer loop
      vertex -1.96034 -19.9037 80
      vertex -2.05836 -20.8989 80
      vertex 0 -21 80
    endloop
  endfacet
  facet normal 0 0 1
    outer loop
      vertex -3.90181 -19.6157 80
      vertex -2.05836 -20.8989 80
      vertex -1.96034 -19.9037 80
    endloop
  endfacet
  facet normal 0 0 1
    outer loop
      vertex -3.90181 -19.6157 80
      vertex -4.0969 -20.5965 80
      vertex -2.05836 -20.8989 80
    endloop
  endfacet
  facet normal 0 0 1
    outer loop
      vertex -5.80569 -19.1388 80
      vertex -4.0969 -20.5965 80
      vertex -3.90181 -19.6157 80
    endloop
  endfacet
  facet normal 0 0 1
    outer loop
      vertex -5.80569 -19.1388 80
      vertex -6.09598 -20.0957 80
      vertex -4.0969 -20.5965 80
    endloop
  endfacet
  facet normal 0 0 1
    outer loop
      vertex -7.65367 -18.4776 80
      vertex -6.09598 -20.0957 80
      vertex -5.80569 -19.1388 80
    endloop
  endfacet
  facet normal 0 0 1
    outer loop
      vertex -7.65367 -18.4776 80
      vertex -8.03635 -19.4015 80
      vertex -6.09598 -20.0957 80
    endloop
  endfacet
  facet normal 0 0 1
    outer loop
      vertex -9.42793 -17.6384 80
      vertex -8.03635 -19.4015 80
      vertex -7.65367 -18.4776 80
    endloop
  endfacet
  facet normal 0 0 1
    outer loop
      vertex -9.42793 -17.6384 80
      vertex -9.89933 -18.5203 80
      vertex -8.03635 -19.4015 80
    endloop
  endfacet
  facet normal 0 0 1
    outer loop
      vertex -11.1114 -16.6294 80
      vertex -9.89933 -18.5203 80
      vertex -9.42793 -17.6384 80
    endloop
  endfacet
  facet normal 0 0 1
    outer loop
      vertex -11.1114 -16.6294 80
      vertex -11.667 -17.4609 80
      vertex -9.89933 -18.5203 80
    endloop
  endfacet
  facet normal 0 0 1
    outer loop
      vertex -12.6879 -15.4602 80
      vertex -11.667 -17.4609 80
      vertex -11.1114 -16.6294 80
    endloop
  endfacet
  facet normal 0 0 1
    outer loop
      vertex -12.6879 -15.4602 80
      vertex -13.3223 -16.2332 80
      vertex -11.667 -17.4609 80
    endloop
  endfacet
  facet normal 0 0 1
    outer loop
      vertex -14.1421 -14.1421 80
      vertex -13.3223 -16.2332 80
      vertex -12.6879 -15.4602 80
    endloop
  endfacet
  facet normal 0 0 1
    outer loop
      vertex -14.1421 -14.1421 80
      vertex -14.8492 -14.8492 80
      vertex -13.3223 -16.2332 80
    endloop
  endfacet
  facet normal 0 0 1
    outer loop
      vertex -15.4602 -12.6879 80
      vertex -14.8492 -14.8492 80
      vertex -14.1421 -14.1421 80
    endloop
  endfacet
  facet normal 0 0 1
    outer loop
      vertex -15.4602 -12.6879 80
      vertex -16.2332 -13.3223 80
      vertex -14.8492 -14.8492 80
    endloop
  endfacet
  facet normal 0 0 1
    outer loop
      vertex -16.6294 -11.1114 80
      vertex -16.2332 -13.3223 80
      vertex -15.4602 -12.6879 80
    endloop
  endfacet
  facet normal 0 0 1
    outer loop
      vertex -16.6294 -11.1114 80
      vertex -17.4609 -11.667 80
      vertex -16.2332 -13.3223 80
    endloop
  endfacet
  facet normal 0 0 1
    outer loop
      vertex -17.6384 -9.42793 80
      vertex -17.4609 -11.667 80
      vertex -16.6294 -11.1114 80
    endloop
  endfacet
  facet normal 0 0 1
    outer loop
      vertex -18.5203 -9.89933 80
      vertex -17.6384 -9.42793 80
      vertex -18.4776 -7.65367 80
    endloop
  endfacet
  facet normal 0 0 1
    outer loop
      vertex -17.6384 -9.42793 80
      vertex -18.5203 -9.89933 80
      vertex -17.4609 -11.667 80
    endloop
  endfacet
  facet normal 0 0 1
    outer loop
      vertex -19.4015 -8.03635 80
      vertex -18.4776 -7.65367 80
      vertex -19.1388 -5.80569 80
    endloop
  endfacet
  facet normal 0 0 1
    outer loop
      vertex -18.4776 -7.65367 80
      vertex -19.4015 -8.03635 80
      vertex -18.5203 -9.89933 80
    endloop
  endfacet
  facet normal 0 0 1
    outer loop
      vertex -20.0957 -6.09598 80
      vertex -19.1388 -5.80569 80
      vertex -19.6157 -3.90181 80
    endloop
  endfacet
  facet normal 0 0 1
    outer loop
      vertex -20.5965 -4.0969 80
      vertex -19.6157 -3.90181 80
      vertex -19.9037 -1.96034 80
    endloop
  endfacet
  facet normal 0 0 1
    outer loop
      vertex -19.1388 -5.80569 80
      vertex -20.0957 -6.09598 80
      vertex -19.4015 -8.03635 80
    endloop
  endfacet
  facet normal 0 0 1
    outer loop
      vertex -20.8989 -2.05836 80
      vertex -19.9037 -1.96034 80
      vertex -20 0 80
    endloop
  endfacet
  facet normal -0 0 1
    outer loop
      vertex -20.8989 2.05836 80
      vertex -19.9037 1.96034 80
      vertex -20.5965 4.0969 80
    endloop
  endfacet
  facet normal 0 0 1
    outer loop
      vertex -19.9037 1.96034 80
      vertex -20.8989 2.05836 80
      vertex -20 0 80
    endloop
  endfacet
  facet normal 0 0 1
    outer loop
      vertex -19.6157 -3.90181 80
      vertex -20.5965 -4.0969 80
      vertex -20.0957 -6.09598 80
    endloop
  endfacet
  facet normal 0 0 1
    outer loop
      vertex -21 0 80
      vertex -20 0 80
      vertex -20.8989 2.05836 80
    endloop
  endfacet
  facet normal 0 0 1
    outer loop
      vertex -19.9037 -1.96034 80
      vertex -20.8989 -2.05836 80
      vertex -20.5965 -4.0969 80
    endloop
  endfacet
  facet normal 0 0 1
    outer loop
      vertex -20 0 80
      vertex -21 0 80
      vertex -20.8989 -2.05836 80
    endloop
  endfacet
  facet normal -0.998796 0.0490576 0
    outer loop
      vertex -21 0 0
      vertex -20.8989 2.05836 80
      vertex -20.8989 2.05836 0
    endloop
  endfacet
  facet normal -0.998796 0.0490576 0
    outer loop
      vertex -20.8989 2.05836 80
      vertex -21 0 0
      vertex -21 0 80
    endloop
  endfacet
  facet normal -0.336857 -0.941556 0
    outer loop
      vertex -8.03635 -19.4015 0
      vertex -6.09598 -20.0957 80
      vertex -8.03635 -19.4015 80
    endloop
  endfacet
  facet normal -0.336857 -0.941556 -0
    outer loop
      vertex -6.09598 -20.0957 80
      vertex -8.03635 -19.4015 0
      vertex -6.09598 -20.0957 0
    endloop
  endfacet
  facet normal 0.671585 -0.740927 0
    outer loop
      vertex 13.3223 -16.2332 0
      vertex 14.8492 -14.8492 80
      vertex 13.3223 -16.2332 80
    endloop
  endfacet
  facet normal 0.671585 -0.740927 0
    outer loop
      vertex 14.8492 -14.8492 80
      vertex 13.3223 -16.2332 0
      vertex 14.8492 -14.8492 0
    endloop
  endfacet
  facet normal 0.671584 0.740928 -0
    outer loop
      vertex -12.6879 -15.4602 0
      vertex -14.1421 -14.1421 80
      vertex -12.6879 -15.4602 80
    endloop
  endfacet
  facet normal 0.671584 0.740928 0
    outer loop
      vertex -14.1421 -14.1421 80
      vertex -12.6879 -15.4602 0
      vertex -14.1421 -14.1421 0
    endloop
  endfacet
  facet normal 0.941547 -0.336882 0
    outer loop
      vertex -19.1388 5.80569 80
      vertex -18.4776 7.65367 0
      vertex -18.4776 7.65367 80
    endloop
  endfacet
  facet normal 0.941547 -0.336882 0
    outer loop
      vertex -18.4776 7.65367 0
      vertex -19.1388 5.80569 80
      vertex -19.1388 5.80569 0
    endloop
  endfacet
  facet normal -0.989176 -0.146736 0
    outer loop
      vertex 19.9037 1.96034 0
      vertex 19.6157 3.90181 80
      vertex 19.6157 3.90181 0
    endloop
  endfacet
  facet normal -0.989176 -0.146736 0
    outer loop
      vertex 19.6157 3.90181 80
      vertex 19.9037 1.96034 0
      vertex 19.9037 1.96034 80
    endloop
  endfacet
  facet normal -0.998796 -0.049065 0
    outer loop
      vertex 20 0 0
      vertex 19.9037 1.96034 80
      vertex 19.9037 1.96034 0
    endloop
  endfacet
  facet normal -0.998796 -0.049065 0
    outer loop
      vertex 19.9037 1.96034 80
      vertex 20 0 0
      vertex 20 0 80
    endloop
  endfacet
  facet normal 0.51409 0.857736 -0
    outer loop
      vertex -9.42793 -17.6384 0
      vertex -11.1114 -16.6294 80
      vertex -9.42793 -17.6384 80
    endloop
  endfacet
  facet normal 0.51409 0.857736 0
    outer loop
      vertex -11.1114 -16.6294 80
      vertex -9.42793 -17.6384 0
      vertex -11.1114 -16.6294 0
    endloop
  endfacet
  facet normal -0.671584 -0.740928 0
    outer loop
      vertex 12.6879 15.4602 0
      vertex 14.1421 14.1421 80
      vertex 12.6879 15.4602 80
    endloop
  endfacet
  facet normal -0.671584 -0.740928 -0
    outer loop
      vertex 14.1421 14.1421 80
      vertex 12.6879 15.4602 0
      vertex 14.1421 14.1421 0
    endloop
  endfacet
  facet normal 0.146736 0.989176 -0
    outer loop
      vertex -1.96034 -19.9037 0
      vertex -3.90181 -19.6157 80
      vertex -1.96034 -19.9037 80
    endloop
  endfacet
  facet normal 0.146736 0.989176 0
    outer loop
      vertex -3.90181 -19.6157 80
      vertex -1.96034 -19.9037 0
      vertex -3.90181 -19.6157 0
    endloop
  endfacet
  facet normal -0.740928 -0.671584 0
    outer loop
      vertex 15.4602 12.6879 0
      vertex 14.1421 14.1421 80
      vertex 14.1421 14.1421 0
    endloop
  endfacet
  facet normal -0.740928 -0.671584 0
    outer loop
      vertex 14.1421 14.1421 80
      vertex 15.4602 12.6879 0
      vertex 15.4602 12.6879 80
    endloop
  endfacet
  facet normal -0.427571 -0.903982 0
    outer loop
      vertex 7.65367 18.4776 0
      vertex 9.42793 17.6384 80
      vertex 7.65367 18.4776 80
    endloop
  endfacet
  facet normal -0.427571 -0.903982 -0
    outer loop
      vertex 9.42793 17.6384 80
      vertex 7.65367 18.4776 0
      vertex 9.42793 17.6384 0
    endloop
  endfacet
  facet normal -0.049065 0.998796 0
    outer loop
      vertex 1.96034 -19.9037 0
      vertex 0 -20 80
      vertex 1.96034 -19.9037 80
    endloop
  endfacet
  facet normal -0.049065 0.998796 0
    outer loop
      vertex 0 -20 80
      vertex 1.96034 -19.9037 0
      vertex 0 -20 0
    endloop
  endfacet
  facet normal 0.740928 -0.671584 0
    outer loop
      vertex -15.4602 12.6879 80
      vertex -14.1421 14.1421 0
      vertex -14.1421 14.1421 80
    endloop
  endfacet
  facet normal 0.740928 -0.671584 0
    outer loop
      vertex -14.1421 14.1421 0
      vertex -15.4602 12.6879 80
      vertex -15.4602 12.6879 0
    endloop
  endfacet
  facet normal -0.989176 0.146736 0
    outer loop
      vertex 19.6157 -3.90181 0
      vertex 19.9037 -1.96034 80
      vertex 19.9037 -1.96034 0
    endloop
  endfacet
  facet normal -0.989176 0.146736 0
    outer loop
      vertex 19.9037 -1.96034 80
      vertex 19.6157 -3.90181 0
      vertex 19.6157 -3.90181 80
    endloop
  endfacet
  facet normal -0.903982 -0.427571 0
    outer loop
      vertex 18.4776 7.65367 0
      vertex 17.6384 9.42793 80
      vertex 17.6384 9.42793 0
    endloop
  endfacet
  facet normal -0.903982 -0.427571 0
    outer loop
      vertex 17.6384 9.42793 80
      vertex 18.4776 7.65367 0
      vertex 18.4776 7.65367 80
    endloop
  endfacet
  facet normal 0.242982 -0.970031 0
    outer loop
      vertex -5.80569 19.1388 0
      vertex -3.90181 19.6157 80
      vertex -5.80569 19.1388 80
    endloop
  endfacet
  facet normal 0.242982 -0.970031 0
    outer loop
      vertex -3.90181 19.6157 80
      vertex -5.80569 19.1388 0
      vertex -3.90181 19.6157 0
    endloop
  endfacet
  facet normal 0.80321 -0.595695 0
    outer loop
      vertex -16.6294 11.1114 80
      vertex -15.4602 12.6879 0
      vertex -15.4602 12.6879 80
    endloop
  endfacet
  facet normal 0.80321 -0.595695 0
    outer loop
      vertex -15.4602 12.6879 0
      vertex -16.6294 11.1114 80
      vertex -16.6294 11.1114 0
    endloop
  endfacet
  facet normal -0.242982 -0.970031 0
    outer loop
      vertex 3.90181 19.6157 0
      vertex 5.80569 19.1388 80
      vertex 3.90181 19.6157 80
    endloop
  endfacet
  facet normal -0.242982 -0.970031 -0
    outer loop
      vertex 5.80569 19.1388 80
      vertex 3.90181 19.6157 0
      vertex 5.80569 19.1388 0
    endloop
  endfacet
  facet normal -0.336882 -0.941547 0
    outer loop
      vertex 5.80569 19.1388 0
      vertex 7.65367 18.4776 80
      vertex 5.80569 19.1388 80
    endloop
  endfacet
  facet normal -0.336882 -0.941547 -0
    outer loop
      vertex 7.65367 18.4776 80
      vertex 5.80569 19.1388 0
      vertex 7.65367 18.4776 0
    endloop
  endfacet
  facet normal -0.941547 -0.336882 0
    outer loop
      vertex 19.1388 5.80569 0
      vertex 18.4776 7.65367 80
      vertex 18.4776 7.65367 0
    endloop
  endfacet
  facet normal -0.941547 -0.336882 0
    outer loop
      vertex 18.4776 7.65367 80
      vertex 19.1388 5.80569 0
      vertex 19.1388 5.80569 80
    endloop
  endfacet
  facet normal -0.595695 -0.80321 0
    outer loop
      vertex 11.1114 16.6294 0
      vertex 12.6879 15.4602 80
      vertex 11.1114 16.6294 80
    endloop
  endfacet
  facet normal -0.595695 -0.80321 -0
    outer loop
      vertex 12.6879 15.4602 80
      vertex 11.1114 16.6294 0
      vertex 12.6879 15.4602 0
    endloop
  endfacet
  facet normal 0.857736 0.51409 0
    outer loop
      vertex -16.6294 -11.1114 80
      vertex -17.6384 -9.42793 0
      vertex -17.6384 -9.42793 80
    endloop
  endfacet
  facet normal 0.857736 0.51409 0
    outer loop
      vertex -17.6384 -9.42793 0
      vertex -16.6294 -11.1114 80
      vertex -16.6294 -11.1114 0
    endloop
  endfacet
  facet normal -0.51409 -0.857736 0
    outer loop
      vertex 9.42793 17.6384 0
      vertex 11.1114 16.6294 80
      vertex 9.42793 17.6384 80
    endloop
  endfacet
  facet normal -0.51409 -0.857736 -0
    outer loop
      vertex 11.1114 16.6294 80
      vertex 9.42793 17.6384 0
      vertex 11.1114 16.6294 0
    endloop
  endfacet
  facet normal -0.941547 0.336882 0
    outer loop
      vertex 18.4776 -7.65367 0
      vertex 19.1388 -5.80569 80
      vertex 19.1388 -5.80569 0
    endloop
  endfacet
  facet normal -0.941547 0.336882 0
    outer loop
      vertex 19.1388 -5.80569 80
      vertex 18.4776 -7.65367 0
      vertex 18.4776 -7.65367 80
    endloop
  endfacet
  facet normal 0.857736 -0.51409 0
    outer loop
      vertex -17.6384 9.42793 80
      vertex -16.6294 11.1114 0
      vertex -16.6294 11.1114 80
    endloop
  endfacet
  facet normal 0.857736 -0.51409 0
    outer loop
      vertex -16.6294 11.1114 0
      vertex -17.6384 9.42793 80
      vertex -17.6384 9.42793 0
    endloop
  endfacet
  facet normal 0.970031 0.242982 0
    outer loop
      vertex -19.1388 -5.80569 80
      vertex -19.6157 -3.90181 0
      vertex -19.6157 -3.90181 80
    endloop
  endfacet
  facet normal 0.970031 0.242982 0
    outer loop
      vertex -19.6157 -3.90181 0
      vertex -19.1388 -5.80569 80
      vertex -19.1388 -5.80569 0
    endloop
  endfacet
  facet normal -0.049065 -0.998796 0
    outer loop
      vertex 0 20 0
      vertex 1.96034 19.9037 80
      vertex 0 20 80
    endloop
  endfacet
  facet normal -0.049065 -0.998796 -0
    outer loop
      vertex 1.96034 19.9037 80
      vertex 0 20 0
      vertex 1.96034 19.9037 0
    endloop
  endfacet
  facet normal -0.857736 -0.51409 0
    outer loop
      vertex 17.6384 9.42793 0
      vertex 16.6294 11.1114 80
      vertex 16.6294 11.1114 0
    endloop
  endfacet
  facet normal -0.857736 -0.51409 0
    outer loop
      vertex 16.6294 11.1114 80
      vertex 17.6384 9.42793 0
      vertex 17.6384 9.42793 80
    endloop
  endfacet
  facet normal 0.941547 0.336882 0
    outer loop
      vertex -18.4776 -7.65367 80
      vertex -19.1388 -5.80569 0
      vertex -19.1388 -5.80569 80
    endloop
  endfacet
  facet normal 0.941547 0.336882 0
    outer loop
      vertex -19.1388 -5.80569 0
      vertex -18.4776 -7.65367 80
      vertex -18.4776 -7.65367 0
    endloop
  endfacet
  facet normal 0.671584 -0.740928 0
    outer loop
      vertex -14.1421 14.1421 0
      vertex -12.6879 15.4602 80
      vertex -14.1421 14.1421 80
    endloop
  endfacet
  facet normal 0.671584 -0.740928 0
    outer loop
      vertex -12.6879 15.4602 80
      vertex -14.1421 14.1421 0
      vertex -12.6879 15.4602 0
    endloop
  endfacet
  facet normal -0.970031 0.242982 0
    outer loop
      vertex 19.1388 -5.80569 0
      vertex 19.6157 -3.90181 80
      vertex 19.6157 -3.90181 0
    endloop
  endfacet
  facet normal -0.970031 0.242982 0
    outer loop
      vertex 19.6157 -3.90181 80
      vertex 19.1388 -5.80569 0
      vertex 19.1388 -5.80569 80
    endloop
  endfacet
  facet normal 0.51409 -0.857736 0
    outer loop
      vertex -11.1114 16.6294 0
      vertex -9.42793 17.6384 80
      vertex -11.1114 16.6294 80
    endloop
  endfacet
  facet normal 0.51409 -0.857736 0
    outer loop
      vertex -9.42793 17.6384 80
      vertex -11.1114 16.6294 0
      vertex -9.42793 17.6384 0
    endloop
  endfacet
  facet normal 0.998796 0.049065 0
    outer loop
      vertex -19.9037 -1.96034 80
      vertex -20 0 0
      vertex -20 0 80
    endloop
  endfacet
  facet normal 0.998796 0.049065 0
    outer loop
      vertex -20 0 0
      vertex -19.9037 -1.96034 80
      vertex -19.9037 -1.96034 0
    endloop
  endfacet
  facet normal 0.970031 -0.242982 0
    outer loop
      vertex -19.6157 3.90181 80
      vertex -19.1388 5.80569 0
      vertex -19.1388 5.80569 80
    endloop
  endfacet
  facet normal 0.970031 -0.242982 0
    outer loop
      vertex -19.1388 5.80569 0
      vertex -19.6157 3.90181 80
      vertex -19.6157 3.90181 0
    endloop
  endfacet
  facet normal -0.427571 0.903982 0
    outer loop
      vertex 9.42793 -17.6384 0
      vertex 7.65367 -18.4776 80
      vertex 9.42793 -17.6384 80
    endloop
  endfacet
  facet normal -0.427571 0.903982 0
    outer loop
      vertex 7.65367 -18.4776 80
      vertex 9.42793 -17.6384 0
      vertex 7.65367 -18.4776 0
    endloop
  endfacet
  facet normal 0.336882 -0.941547 0
    outer loop
      vertex -7.65367 18.4776 0
      vertex -5.80569 19.1388 80
      vertex -7.65367 18.4776 80
    endloop
  endfacet
  facet normal 0.336882 -0.941547 0
    outer loop
      vertex -5.80569 19.1388 80
      vertex -7.65367 18.4776 0
      vertex -5.80569 19.1388 0
    endloop
  endfacet
  facet normal -0.51409 0.857736 0
    outer loop
      vertex 11.1114 -16.6294 0
      vertex 9.42793 -17.6384 80
      vertex 11.1114 -16.6294 80
    endloop
  endfacet
  facet normal -0.51409 0.857736 0
    outer loop
      vertex 9.42793 -17.6384 80
      vertex 11.1114 -16.6294 0
      vertex 9.42793 -17.6384 0
    endloop
  endfacet
  facet normal -0.146736 0.989176 0
    outer loop
      vertex 3.90181 -19.6157 0
      vertex 1.96034 -19.9037 80
      vertex 3.90181 -19.6157 80
    endloop
  endfacet
  facet normal -0.146736 0.989176 0
    outer loop
      vertex 1.96034 -19.9037 80
      vertex 3.90181 -19.6157 0
      vertex 1.96034 -19.9037 0
    endloop
  endfacet
  facet normal -0.740928 0.671584 0
    outer loop
      vertex 14.1421 -14.1421 0
      vertex 15.4602 -12.6879 80
      vertex 15.4602 -12.6879 0
    endloop
  endfacet
  facet normal -0.740928 0.671584 0
    outer loop
      vertex 15.4602 -12.6879 80
      vertex 14.1421 -14.1421 0
      vertex 14.1421 -14.1421 80
    endloop
  endfacet
  facet normal -0.80321 0.595695 0
    outer loop
      vertex 15.4602 -12.6879 0
      vertex 16.6294 -11.1114 80
      vertex 16.6294 -11.1114 0
    endloop
  endfacet
  facet normal -0.80321 0.595695 0
    outer loop
      vertex 16.6294 -11.1114 80
      vertex 15.4602 -12.6879 0
      vertex 15.4602 -12.6879 80
    endloop
  endfacet
  facet normal 0.049065 -0.998796 0
    outer loop
      vertex -1.96034 19.9037 0
      vertex 0 20 80
      vertex -1.96034 19.9037 80
    endloop
  endfacet
  facet normal 0.049065 -0.998796 0
    outer loop
      vertex 0 20 80
      vertex -1.96034 19.9037 0
      vertex 0 20 0
    endloop
  endfacet
  facet normal 0.427571 -0.903982 0
    outer loop
      vertex -9.42793 17.6384 0
      vertex -7.65367 18.4776 80
      vertex -9.42793 17.6384 80
    endloop
  endfacet
  facet normal 0.427571 -0.903982 0
    outer loop
      vertex -7.65367 18.4776 80
      vertex -9.42793 17.6384 0
      vertex -7.65367 18.4776 0
    endloop
  endfacet
  facet normal 0.595695 -0.80321 0
    outer loop
      vertex -12.6879 15.4602 0
      vertex -11.1114 16.6294 80
      vertex -12.6879 15.4602 80
    endloop
  endfacet
  facet normal 0.595695 -0.80321 0
    outer loop
      vertex -11.1114 16.6294 80
      vertex -12.6879 15.4602 0
      vertex -11.1114 16.6294 0
    endloop
  endfacet
  facet normal 0.989176 -0.146736 0
    outer loop
      vertex -19.9037 1.96034 80
      vertex -19.6157 3.90181 0
      vertex -19.6157 3.90181 80
    endloop
  endfacet
  facet normal 0.989176 -0.146736 0
    outer loop
      vertex -19.6157 3.90181 0
      vertex -19.9037 1.96034 80
      vertex -19.9037 1.96034 0
    endloop
  endfacet
  facet normal 0.242982 0.970031 -0
    outer loop
      vertex -3.90181 -19.6157 0
      vertex -5.80569 -19.1388 80
      vertex -3.90181 -19.6157 80
    endloop
  endfacet
  facet normal 0.242982 0.970031 0
    outer loop
      vertex -5.80569 -19.1388 80
      vertex -3.90181 -19.6157 0
      vertex -5.80569 -19.1388 0
    endloop
  endfacet
  facet normal -0.970031 -0.242982 0
    outer loop
      vertex 19.6157 3.90181 0
      vertex 19.1388 5.80569 80
      vertex 19.1388 5.80569 0
    endloop
  endfacet
  facet normal -0.970031 -0.242982 0
    outer loop
      vertex 19.1388 5.80569 80
      vertex 19.6157 3.90181 0
      vertex 19.6157 3.90181 80
    endloop
  endfacet
  facet normal -0.80321 -0.595695 0
    outer loop
      vertex 16.6294 11.1114 0
      vertex 15.4602 12.6879 80
      vertex 15.4602 12.6879 0
    endloop
  endfacet
  facet normal -0.80321 -0.595695 0
    outer loop
      vertex 15.4602 12.6879 80
      vertex 16.6294 11.1114 0
      vertex 16.6294 11.1114 80
    endloop
  endfacet
  facet normal 0.80321 0.595695 0
    outer loop
      vertex -15.4602 -12.6879 80
      vertex -16.6294 -11.1114 0
      vertex -16.6294 -11.1114 80
    endloop
  endfacet
  facet normal 0.80321 0.595695 0
    outer loop
      vertex -16.6294 -11.1114 0
      vertex -15.4602 -12.6879 80
      vertex -15.4602 -12.6879 0
    endloop
  endfacet
  facet normal 0.903982 0.427571 0
    outer loop
      vertex -17.6384 -9.42793 80
      vertex -18.4776 -7.65367 0
      vertex -18.4776 -7.65367 80
    endloop
  endfacet
  facet normal 0.903982 0.427571 0
    outer loop
      vertex -18.4776 -7.65367 0
      vertex -17.6384 -9.42793 80
      vertex -17.6384 -9.42793 0
    endloop
  endfacet
  facet normal -0.146736 -0.989176 0
    outer loop
      vertex 1.96034 19.9037 0
      vertex 3.90181 19.6157 80
      vertex 1.96034 19.9037 80
    endloop
  endfacet
  facet normal -0.146736 -0.989176 -0
    outer loop
      vertex 3.90181 19.6157 80
      vertex 1.96034 19.9037 0
      vertex 3.90181 19.6157 0
    endloop
  endfacet
  facet normal 0.427571 0.903982 -0
    outer loop
      vertex -7.65367 -18.4776 0
      vertex -9.42793 -17.6384 80
      vertex -7.65367 -18.4776 80
    endloop
  endfacet
  facet normal 0.427571 0.903982 0
    outer loop
      vertex -9.42793 -17.6384 80
      vertex -7.65367 -18.4776 0
      vertex -9.42793 -17.6384 0
    endloop
  endfacet
  facet normal -0.595695 0.80321 0
    outer loop
      vertex 12.6879 -15.4602 0
      vertex 11.1114 -16.6294 80
      vertex 12.6879 -15.4602 80
    endloop
  endfacet
  facet normal -0.595695 0.80321 0
    outer loop
      vertex 11.1114 -16.6294 80
      vertex 12.6879 -15.4602 0
      vertex 11.1114 -16.6294 0
    endloop
  endfacet
  facet normal -0.998796 0.049065 0
    outer loop
      vertex 19.9037 -1.96034 0
      vertex 20 0 80
      vertex 20 0 0
    endloop
  endfacet
  facet normal -0.998796 0.049065 0
    outer loop
      vertex 20 0 80
      vertex 19.9037 -1.96034 0
      vertex 19.9037 -1.96034 80
    endloop
  endfacet
  facet normal 0.146736 -0.989176 0
    outer loop
      vertex -3.90181 19.6157 0
      vertex -1.96034 19.9037 80
      vertex -3.90181 19.6157 80
    endloop
  endfacet
  facet normal 0.146736 -0.989176 0
    outer loop
      vertex -1.96034 19.9037 80
      vertex -3.90181 19.6157 0
      vertex -1.96034 19.9037 0
    endloop
  endfacet
  facet normal 0.989176 0.146736 0
    outer loop
      vertex -19.6157 -3.90181 80
      vertex -19.9037 -1.96034 0
      vertex -19.9037 -1.96034 80
    endloop
  endfacet
  facet normal 0.989176 0.146736 0
    outer loop
      vertex -19.9037 -1.96034 0
      vertex -19.6157 -3.90181 80
      vertex -19.6157 -3.90181 0
    endloop
  endfacet
  facet normal -0.336882 0.941547 0
    outer loop
      vertex 7.65367 -18.4776 0
      vertex 5.80569 -19.1388 80
      vertex 7.65367 -18.4776 80
    endloop
  endfacet
  facet normal -0.336882 0.941547 0
    outer loop
      vertex 5.80569 -19.1388 80
      vertex 7.65367 -18.4776 0
      vertex 5.80569 -19.1388 0
    endloop
  endfacet
  facet normal -0.242982 0.970031 0
    outer loop
      vertex 5.80569 -19.1388 0
      vertex 3.90181 -19.6157 80
      vertex 5.80569 -19.1388 80
    endloop
  endfacet
  facet normal -0.242982 0.970031 0
    outer loop
      vertex 3.90181 -19.6157 80
      vertex 5.80569 -19.1388 0
      vertex 3.90181 -19.6157 0
    endloop
  endfacet
  facet normal 0.740928 0.671584 0
    outer loop
      vertex -14.1421 -14.1421 80
      vertex -15.4602 -12.6879 0
      vertex -15.4602 -12.6879 80
    endloop
  endfacet
  facet normal 0.740928 0.671584 0
    outer loop
      vertex -15.4602 -12.6879 0
      vertex -14.1421 -14.1421 80
      vertex -14.1421 -14.1421 0
    endloop
  endfacet
  facet normal 0.903982 -0.427571 0
    outer loop
      vertex -18.4776 7.65367 80
      vertex -17.6384 9.42793 0
      vertex -17.6384 9.42793 80
    endloop
  endfacet
  facet normal 0.903982 -0.427571 0
    outer loop
      vertex -17.6384 9.42793 0
      vertex -18.4776 7.65367 80
      vertex -18.4776 7.65367 0
    endloop
  endfacet
  facet normal 0.595695 0.80321 -0
    outer loop
      vertex -11.1114 -16.6294 0
      vertex -12.6879 -15.4602 80
      vertex -11.1114 -16.6294 80
    endloop
  endfacet
  facet normal 0.595695 0.80321 0
    outer loop
      vertex -12.6879 -15.4602 80
      vertex -11.1114 -16.6294 0
      vertex -12.6879 -15.4602 0
    endloop
  endfacet
  facet normal -0.903982 0.427571 0
    outer loop
      vertex 17.6384 -9.42793 0
      vertex 18.4776 -7.65367 80
      vertex 18.4776 -7.65367 0
    endloop
  endfacet
  facet normal -0.903982 0.427571 0
    outer loop
      vertex 18.4776 -7.65367 80
      vertex 17.6384 -9.42793 0
      vertex 17.6384 -9.42793 80
    endloop
  endfacet
  facet normal -0.857736 0.51409 0
    outer loop
      vertex 16.6294 -11.1114 0
      vertex 17.6384 -9.42793 80
      vertex 17.6384 -9.42793 0
    endloop
  endfacet
  facet normal -0.857736 0.51409 0
    outer loop
      vertex 17.6384 -9.42793 80
      vertex 16.6294 -11.1114 0
      vertex 16.6294 -11.1114 80
    endloop
  endfacet
  facet normal 0.049065 0.998796 -0
    outer loop
      vertex 0 -20 0
      vertex -1.96034 -19.9037 80
      vertex 0 -20 80
    endloop
  endfacet
  facet normal 0.049065 0.998796 0
    outer loop
      vertex -1.96034 -19.9037 80
      vertex 0 -20 0
      vertex -1.96034 -19.9037 0
    endloop
  endfacet
  facet normal 0.998796 -0.049065 0
    outer loop
      vertex -20 0 80
      vertex -19.9037 1.96034 0
      vertex -19.9037 1.96034 80
    endloop
  endfacet
  facet normal 0.998796 -0.049065 0
    outer loop
      vertex -19.9037 1.96034 0
      vertex -20 0 80
      vertex -20 0 0
    endloop
  endfacet
  facet normal 0.336882 0.941547 -0
    outer loop
      vertex -5.80569 -19.1388 0
      vertex -7.65367 -18.4776 80
      vertex -5.80569 -19.1388 80
    endloop
  endfacet
  facet normal 0.336882 0.941547 0
    outer loop
      vertex -7.65367 -18.4776 80
      vertex -5.80569 -19.1388 0
      vertex -7.65367 -18.4776 0
    endloop
  endfacet
  facet normal -0.671584 0.740928 0
    outer loop
      vertex 14.1421 -14.1421 0
      vertex 12.6879 -15.4602 80
      vertex 14.1421 -14.1421 80
    endloop
  endfacet
  facet normal -0.671584 0.740928 0
    outer loop
      vertex 12.6879 -15.4602 80
      vertex 14.1421 -14.1421 0
      vertex 12.6879 -15.4602 0
    endloop
  endfacet
endsolid OpenSCAD_Model
